<?xml version="1.0" encoding="iso-8859-1"?>
<!-- Generator: Adobe Illustrator 19.0.0, SVG Export Plug-In . SVG Version: 6.00 Build 0)  -->
<svg version="1.1" id="Capa_1" xmlns="http://www.w3.org/2000/svg" xmlns:xlink="http://www.w3.org/1999/xlink" x="0px" y="0px"
	 viewBox="0 0 51.194 51.194" style="enable-background:new 0 0 51.194 51.194;" xml:space="preserve">
<g>
	<path style="fill:#D0E8F9;" d="M24.367,30.766c-0.481-0.269-1.092-0.093-1.359,0.39l-2.057,3.711
		c-0.268,0.483-0.093,1.092,0.391,1.359c0.153,0.085,0.319,0.125,0.483,0.125c0.352,0,0.693-0.186,0.876-0.515l2.057-3.711
		C25.025,31.642,24.85,31.033,24.367,30.766z"/>
	<path style="fill:#D0E8F9;" d="M27.122,23.734l-2.058,3.711c-0.268,0.483-0.093,1.092,0.39,1.359
		c0.154,0.085,0.32,0.125,0.484,0.125c0.352,0,0.693-0.186,0.876-0.515l2.058-3.711c0.268-0.483,0.093-1.092-0.39-1.359
		C27.997,23.076,27.389,23.251,27.122,23.734z"/>
	<path style="fill:#D0E8F9;" d="M27.81,39.142c-0.484-0.269-1.091-0.094-1.36,0.39l-2.058,3.71c-0.268,0.483-0.093,1.092,0.39,1.359
		c0.154,0.085,0.32,0.125,0.484,0.125c0.352,0,0.692-0.186,0.876-0.515l2.058-3.71C28.468,40.018,28.293,39.409,27.81,39.142z"/>
	<path style="fill:#D0E8F9;" d="M31.923,31.72c-0.482-0.269-1.091-0.094-1.359,0.39l-2.057,3.71
		c-0.268,0.483-0.093,1.092,0.391,1.359c0.153,0.085,0.319,0.125,0.483,0.125c0.352,0,0.693-0.186,0.876-0.515l2.057-3.71
		C32.581,32.597,32.406,31.988,31.923,31.72z"/>
	<path style="fill:#D0E8F9;" d="M16.811,29.812c-0.482-0.269-1.092-0.094-1.359,0.39l-2.057,3.71
		c-0.268,0.483-0.093,1.092,0.391,1.359c0.153,0.085,0.319,0.125,0.483,0.125c0.352,0,0.693-0.186,0.876-0.515l2.057-3.71
		C17.469,30.688,17.295,30.079,16.811,29.812z"/>
	<path style="fill:#D0E8F9;" d="M12.699,37.233c-0.485-0.269-1.091-0.094-1.36,0.39l-2.058,3.71
		c-0.268,0.483-0.093,1.092,0.39,1.359c0.154,0.085,0.32,0.125,0.484,0.125c0.352,0,0.692-0.186,0.876-0.515l2.058-3.71
		C13.356,38.109,13.181,37.501,12.699,37.233z"/>
	<path style="fill:#D0E8F9;" d="M20.255,38.187c-0.485-0.269-1.092-0.094-1.36,0.39l-2.058,3.711
		c-0.268,0.483-0.093,1.092,0.39,1.359c0.154,0.085,0.32,0.125,0.484,0.125c0.352,0,0.693-0.186,0.876-0.515l2.058-3.711
		C20.912,39.064,20.737,38.455,20.255,38.187z"/>
	<path style="fill:#D0E8F9;" d="M16.139,45.608c-0.482-0.269-1.092-0.093-1.359,0.39l-2.057,3.711
		c-0.268,0.483-0.093,1.092,0.391,1.359c0.153,0.085,0.319,0.125,0.483,0.125c0.352,0,0.693-0.186,0.876-0.515l2.057-3.711
		C16.798,46.484,16.623,45.876,16.139,45.608z"/>
	<path style="fill:#D0E8F9;" d="M20.925,22.39c-0.481-0.269-1.092-0.094-1.359,0.39l-2.057,3.71
		c-0.268,0.483-0.093,1.092,0.391,1.359c0.153,0.085,0.319,0.125,0.483,0.125c0.352,0,0.693-0.186,0.876-0.515l2.057-3.71
		C21.583,23.267,21.408,22.658,20.925,22.39z"/>
	<path style="fill:#D0E8F9;" d="M39.478,32.674c-0.481-0.268-1.092-0.093-1.359,0.39l-2.057,3.711
		c-0.268,0.483-0.093,1.092,0.391,1.359c0.153,0.085,0.319,0.125,0.483,0.125c0.352,0,0.693-0.186,0.876-0.515l2.057-3.711
		C40.136,33.55,39.962,32.942,39.478,32.674z"/>
	<path style="fill:#D0E8F9;" d="M43.594,25.253c-0.485-0.268-1.093-0.093-1.36,0.39l-2.058,3.711
		c-0.268,0.483-0.093,1.092,0.39,1.359c0.154,0.085,0.32,0.125,0.484,0.125c0.352,0,0.693-0.186,0.876-0.515l2.058-3.711
		C44.251,26.129,44.076,25.521,43.594,25.253z"/>
	<path style="fill:#D0E8F9;" d="M33.681,13.961c0.154,0.085,0.32,0.125,0.484,0.125c0.352,0,0.693-0.186,0.876-0.515l2.058-3.711
		c0.268-0.483,0.093-1.092-0.39-1.359c-0.484-0.268-1.093-0.094-1.36,0.39l-2.058,3.711C33.024,13.085,33.199,13.694,33.681,13.961z
		"/>
	<path style="fill:#D0E8F9;" d="M37.797,6.54c0.153,0.085,0.319,0.125,0.483,0.125c0.352,0,0.693-0.186,0.876-0.515l2.057-3.711
		c0.268-0.483,0.093-1.092-0.391-1.359c-0.482-0.268-1.092-0.093-1.359,0.39l-2.057,3.711C37.138,5.664,37.313,6.273,37.797,6.54z"
		/>
	<path style="fill:#D0E8F9;" d="M36.038,24.299c-0.484-0.269-1.092-0.094-1.36,0.39l-2.058,3.71
		c-0.268,0.483-0.093,1.092,0.39,1.359c0.154,0.085,0.32,0.125,0.484,0.125c0.352,0,0.692-0.186,0.876-0.515l2.058-3.71
		C36.695,25.175,36.52,24.566,36.038,24.299z"/>
	<path style="fill:#D0E8F9;" d="M38.791,17.267l-2.057,3.71c-0.268,0.483-0.093,1.092,0.391,1.359
		c0.153,0.085,0.319,0.125,0.483,0.125c0.352,0,0.693-0.186,0.876-0.515l2.057-3.71c0.268-0.483,0.093-1.092-0.391-1.359
		C39.669,16.609,39.058,16.784,38.791,17.267z"/>
	<path style="fill:#D0E8F9;" d="M26.127,13.007c0.153,0.085,0.319,0.125,0.483,0.125c0.352,0,0.693-0.186,0.876-0.515l2.057-3.71
		c0.268-0.483,0.093-1.092-0.391-1.359c-0.481-0.269-1.092-0.094-1.359,0.39l-2.057,3.71C25.469,12.13,25.643,12.739,26.127,13.007z
		"/>
	<path style="fill:#D0E8F9;" d="M22.013,20.428c0.153,0.085,0.319,0.125,0.483,0.125c0.352,0,0.693-0.186,0.876-0.515l2.057-3.71
		c0.268-0.483,0.093-1.092-0.391-1.359c-0.481-0.269-1.091-0.094-1.359,0.39l-2.057,3.71C21.355,19.552,21.53,20.161,22.013,20.428z
		"/>
	<path style="fill:#D0E8F9;" d="M10.627,26.383c-0.482-0.269-1.092-0.093-1.359,0.39l-2.057,3.711
		c-0.268,0.483-0.093,1.092,0.391,1.359c0.153,0.085,0.319,0.125,0.483,0.125c0.352,0,0.693-0.186,0.876-0.515l2.057-3.711
		C11.285,27.259,11.11,26.651,10.627,26.383z"/>
	<path style="fill:#D0E8F9;" d="M11.714,24.422c0.154,0.085,0.32,0.125,0.484,0.125c0.352,0,0.693-0.186,0.876-0.515l2.058-3.711
		c0.268-0.483,0.093-1.092-0.39-1.359c-0.484-0.269-1.093-0.094-1.36,0.39l-2.058,3.711C11.056,23.545,11.231,24.154,11.714,24.422z
		"/>
	<path style="fill:#D0E8F9;" d="M19.941,9.579c0.154,0.085,0.32,0.125,0.484,0.125c0.352,0,0.693-0.186,0.876-0.515l2.058-3.711
		c0.268-0.483,0.093-1.092-0.39-1.359c-0.485-0.269-1.093-0.094-1.36,0.39L19.552,8.22C19.284,8.703,19.459,9.312,19.941,9.579z"/>
	<path style="fill:#D0E8F9;" d="M15.829,17.001c0.153,0.085,0.319,0.125,0.483,0.125c0.352,0,0.693-0.186,0.876-0.515l2.057-3.711
		c0.268-0.483,0.093-1.092-0.391-1.359c-0.482-0.269-1.091-0.093-1.359,0.39l-2.057,3.711
		C15.171,16.125,15.345,16.733,15.829,17.001z"/>
	<path style="fill:#D0E8F9;" d="M31.235,16.313l-2.057,3.711c-0.268,0.483-0.093,1.092,0.391,1.359
		c0.153,0.085,0.319,0.125,0.483,0.125c0.352,0,0.693-0.186,0.876-0.515l2.057-3.711c0.268-0.483,0.093-1.092-0.391-1.359
		C32.112,15.655,31.503,15.83,31.235,16.313z"/>
	<path style="fill:#D0E8F9;" d="M30.241,5.586c0.153,0.085,0.319,0.125,0.483,0.125c0.352,0,0.693-0.186,0.876-0.515l2.057-3.71
		c0.268-0.483,0.093-1.092-0.391-1.359c-0.481-0.269-1.092-0.094-1.359,0.39l-2.057,3.71C29.583,4.709,29.758,5.318,30.241,5.586z"
		/>
</g>
<g>
</g>
<g>
</g>
<g>
</g>
<g>
</g>
<g>
</g>
<g>
</g>
<g>
</g>
<g>
</g>
<g>
</g>
<g>
</g>
<g>
</g>
<g>
</g>
<g>
</g>
<g>
</g>
<g>
</g>
</svg>
