<?xml version="1.0" encoding="iso-8859-1"?>
<!-- Generator: Adobe Illustrator 19.0.0, SVG Export Plug-In . SVG Version: 6.00 Build 0)  -->
<svg version="1.1" id="Layer_1" xmlns="http://www.w3.org/2000/svg" xmlns:xlink="http://www.w3.org/1999/xlink" x="0px" y="0px"
	 viewBox="0 0 512 512" style="enable-background:new 0 0 512 512;" xml:space="preserve">
<path style="fill:#5A595C;" d="M280.829,103.725h-49.658c-80.832,0-146.359,65.527-146.359,146.359l0,0
	c0,80.832,65.527,146.359,146.359,146.359h49.658c80.833,0,146.36-65.527,146.36-146.359l0,0
	C427.188,169.253,361.661,103.725,280.829,103.725z"/>
<g>
	<circle style="fill:#20272E;" cx="178.088" cy="263.795" r="14.579"/>
	<circle style="fill:#20272E;" cx="333.907" cy="263.795" r="14.579"/>
	<path style="fill:#20272E;" d="M307.33,291.818c0,28.349-22.981,51.329-51.329,51.329s-51.329-22.981-51.329-51.329H307.33
		L307.33,291.818z"/>
</g>
<g>
	<path style="fill:#FFFFFF;" d="M226.22,291.818v13.629c0,4.833,3.916,8.749,8.749,8.749c4.833,0,8.749-3.916,8.749-8.749v-13.629
		l0,0H226.22L226.22,291.818z"/>
	<path style="fill:#FFFFFF;" d="M268.282,291.818v13.629c0,4.833,3.916,8.749,8.749,8.749s8.749-3.916,8.749-8.749v-13.629l0,0
		H268.282L268.282,291.818z"/>
</g>
<g>
	<path style="fill:#20272E;" d="M256,351.897c-33.127,0-60.078-26.952-60.078-60.079c0-4.833,3.917-8.749,8.749-8.749h102.658
		c4.832,0,8.749,3.916,8.749,8.749C316.079,324.945,289.128,351.897,256,351.897z M214.324,300.566
		c4.046,19.296,21.195,33.832,41.677,33.832s37.631-14.535,41.677-33.832H214.324z"/>
	<path style="fill:#20272E;" d="M510.94,222.543l-12.489-23.019c-13.699-25.25-44.764-35.387-70.715-23.075l-8.027,3.808
		c-9.936-19.91-24.024-37.397-41.13-51.317l5.301-7.249c11.471-15.686,33.212-19.667,49.496-9.067l21.948,14.289
		c4.047,2.635,9.468,1.491,12.105-2.558c2.636-4.049,1.491-9.469-2.558-12.105L442.923,97.96
		c-24.071-15.673-56.212-9.789-73.168,13.403l-5.341,7.303c-24.136-15.5-52.829-24.498-83.582-24.498h-49.658
		c-30.754,0-59.446,8.998-83.582,24.498l-5.341-7.303C125.294,88.174,93.154,82.285,69.082,97.96l-21.95,14.287
		c-4.05,2.636-5.196,8.056-2.558,12.105c2.638,4.05,8.057,5.195,12.105,2.558l21.948-14.289
		c16.285-10.604,38.027-6.618,49.496,9.067l5.301,7.249c-17.105,13.921-31.194,31.408-41.13,51.317l-8.027-3.808
		c-25.955-12.311-57.016-2.171-70.716,23.075L1.06,222.543c-2.304,4.247-0.729,9.559,3.518,11.863c1.326,0.72,2.755,1.06,4.165,1.06
		c3.105,0,6.113-1.657,7.698-4.578l12.489-23.02c9.267-17.08,30.279-23.934,47.837-15.611l8.602,4.079
		c-6.02,16.527-9.308,34.354-9.308,52.938c0,2.318,0.061,4.621,0.162,6.914l-7.328-0.488c-28.651-1.9-53.824,18.935-57.284,47.453
		l-3.154,25.999c-0.582,4.797,2.835,9.158,7.632,9.74c0.358,0.043,0.713,0.065,1.065,0.065c4.362-0.001,8.137-3.258,8.675-7.697
		l3.154-25.999c2.341-19.292,19.373-33.391,38.751-32.1l10.282,0.685c2.94,18.387,9.121,35.705,17.941,51.349l-5.671,1.545
		c-27.717,7.545-44.703,35.457-38.672,63.543l5.499,25.606c0.882,4.105,4.51,6.914,8.546,6.914c0.608,0,1.226-0.064,1.846-0.197
		c4.725-1.015,7.732-5.667,6.717-10.392l-5.499-25.606c-4.081-18.999,7.41-37.88,26.16-42.985l11.015-2.999
		c28.239,38.622,73.872,63.76,125.273,63.76h49.658c51.401,0,97.034-25.14,125.273-63.76l11.016,2.999
		c18.749,5.105,30.241,23.986,26.16,42.985l-5.5,25.606c-1.014,4.725,1.993,9.377,6.717,10.392c0.619,0.133,1.238,0.197,1.847,0.197
		c4.035,0,7.663-2.809,8.545-6.914l5.5-25.606c6.032-28.086-10.955-55.998-38.672-63.543l-5.672-1.545
		c8.819-15.645,15.001-32.961,17.941-51.349l10.282-0.685c19.404-1.296,36.41,12.809,38.751,32.1l3.156,25.999
		c0.539,4.44,4.313,7.697,8.675,7.697c0.352,0,0.707-0.022,1.065-0.065c4.797-0.582,8.214-4.943,7.632-9.74l-3.156-25.999
		c-3.46-28.517-28.626-49.34-57.283-47.453l-7.328,0.488c0.102-2.293,0.162-4.596,0.162-6.914c0-18.582-3.289-36.41-9.308-52.938
		l8.602-4.079c17.553-8.327,38.568-1.471,47.837,15.611l12.489,23.019c1.584,2.921,4.593,4.579,7.698,4.578
		c1.409,0,2.839-0.341,4.165-1.06C511.67,232.102,513.244,226.79,510.94,222.543z M417.675,263.794
		c-0.111,0.527-0.176,1.07-0.187,1.625c-8.018,68.298-66.241,121.465-136.658,121.465h-49.658
		c-70.416,0-128.64-53.168-136.658-121.465c-0.011-0.555-0.076-1.098-0.187-1.625c-0.503-4.772-0.765-9.615-0.765-14.519
		c0-75.878,61.731-137.611,137.61-137.611h49.658c75.878,0,137.61,61.732,137.61,137.611
		C418.44,254.179,418.176,259.021,417.675,263.794z"/>
	<path style="opacity:0.3;fill:#20272E;enable-background:new    ;" d="M510.94,222.542l-12.49-23.019
		c-13.699-25.247-44.761-35.386-70.716-23.075l-8.027,3.808c-9.936-19.91-24.024-37.397-41.13-51.317l5.301-7.249
		c11.471-15.685,33.21-19.67,49.496-9.067l21.948,14.289c4.047,2.635,9.469,1.491,12.105-2.558
		c2.636-4.049,1.491-9.469-2.558-12.105l-21.948-14.289c-24.074-15.673-56.213-9.788-73.168,13.403l-5.341,7.303
		c-24.136-15.5-52.829-24.498-83.582-24.498H256v310.217h24.829c51.401,0,97.034-25.14,125.273-63.76l11.016,2.999
		c18.749,5.105,30.24,23.986,26.159,42.985l-5.499,25.606c-1.015,4.725,1.993,9.377,6.717,10.392
		c0.619,0.133,1.237,0.197,1.846,0.197c4.035,0,7.664-2.809,8.546-6.914l5.499-25.606c6.031-28.086-10.955-55.998-38.671-63.543
		l-5.672-1.545c8.819-15.645,15.001-32.961,17.941-51.349l10.282-0.685c19.387-1.269,36.411,12.808,38.752,32.1l3.154,25.999
		c0.538,4.44,4.313,7.697,8.675,7.697c0.351,0,0.707-0.022,1.065-0.065c4.797-0.582,8.214-4.942,7.632-9.74l-3.154-25.999
		c-3.46-28.516-28.631-49.352-57.284-47.452l-7.328,0.488c0.102-2.293,0.162-4.596,0.162-6.914c0-18.582-3.289-36.411-9.308-52.938
		l8.601-4.079c17.56-8.327,38.571-1.469,47.837,15.611l12.49,23.019c1.585,2.921,4.593,4.579,7.698,4.578
		c1.409,0,2.839-0.341,4.165-1.06C511.67,232.102,513.244,226.789,510.94,222.542z"/>
</g>
<g>
</g>
<g>
</g>
<g>
</g>
<g>
</g>
<g>
</g>
<g>
</g>
<g>
</g>
<g>
</g>
<g>
</g>
<g>
</g>
<g>
</g>
<g>
</g>
<g>
</g>
<g>
</g>
<g>
</g>
</svg>
