<svg height="512pt" viewBox="0 0 512 512" width="512pt" xmlns="http://www.w3.org/2000/svg"><path d="m256 0c-141.386719 0-256 114.613281-256 256s114.613281 256 256 256 256-114.613281 256-256-114.613281-256-256-256zm0 420.507812c-90.710938 0-164.507812-73.796874-164.507812-164.507812s73.796874-164.507812 164.507812-164.507812 164.507812 73.796874 164.507812 164.507812-73.796874 164.507812-164.507812 164.507812zm0 0" fill="#576574"/><path d="m30.90625 256c0-136.195312 106.359375-247.53125 240.546875-255.523438-5.113281-.304687-10.261719-.476562-15.453125-.476562-141.386719 0-256 114.613281-256 256s114.613281 256 256 256c5.191406 0 10.339844-.171875 15.453125-.476562-134.1875-7.992188-240.546875-119.328126-240.546875-255.523438zm0 0" fill="#3e4b5a"/><path d="m435.292969 366.148438c-3.714844-2.101563-5.019531-6.816407-2.917969-10.53125 17.117188-30.234376 26.164062-64.683594 26.164062-99.617188s-9.046874-69.382812-26.164062-99.621094c-2.101562-3.714844-.796875-8.429687 2.917969-10.53125 3.714843-2.101562 8.429687-.792968 10.53125 2.917969 18.429687 32.554687 28.167969 69.636719 28.167969 107.234375s-9.738282 74.679688-28.167969 107.234375c-2.101563 3.710937-6.816407 5.019531-10.53125 2.914063zm0 0" fill="#e4eaf8"/><path d="m66.175781 363.234375c-37.519531-66.277344-37.578125-148.085937 0-214.46875 2.101563-3.710937 6.816407-5.019531 10.53125-2.917969 3.714844 2.101563 5.019531 6.816406 2.917969 10.53125-34.847656 61.558594-34.902344 137.585938 0 199.238282 2.101562 3.714843.796875 8.429687-2.917969 10.53125-3.714843 2.105468-8.429687.800781-10.53125-2.914063zm0 0" fill="#e4eaf8"/><path d="m256 194.714844c4.910156 0 9.683594.597656 14.261719 1.691406v-73.503906c-4.6875-.5-9.445313-.761719-14.261719-.761719s-9.574219.261719-14.261719.761719v73.503906c4.578125-1.097656 9.351563-1.691406 14.261719-1.691406zm0 0" fill="#ee5253"/><path d="m241.738281 130.714844c9.101563-3.480469 18.652344-5.988282 28.523438-7.421875v-.390625c-4.6875-.5-9.445313-.761719-14.261719-.761719s-9.574219.261719-14.261719.761719zm0 0" fill="#d83941"/><path d="m211.554688 213.871094-63.640626-36.742188c-5.597656 7.652344-10.40625 15.917969-14.300781 24.679688l63.644531 36.746094c2.785157-9.355469 7.746094-17.777344 14.296876-24.683594zm0 0" fill="#ee5253"/><path d="m161.449219 216.59375.359375-1.132812c2.710937-8.527344 6.238281-16.636719 10.453125-24.273438l-24.347657-14.058594c-5.597656 7.652344-10.40625 15.921875-14.300781 24.679688l27.414063 15.828125zm0 0" fill="#d83941"/><path d="m194.714844 256c0-4.910156.597656-9.683594 1.691406-14.261719h-73.503906c-.5 4.6875-.761719 9.445313-.761719 14.261719s.261719 9.574219.761719 14.261719h73.503906c-1.09375-4.578125-1.691406-9.351563-1.691406-14.261719zm0 0" fill="#ee5253"/><path d="m154.554688 270.261719c-.65625-4.699219-.992188-9.457031-.992188-14.261719s.335938-9.5625.992188-14.261719h-31.652344c-.5 4.6875-.761719 9.445313-.761719 14.261719s.261719 9.574219.761719 14.261719zm0 0" fill="#d83941"/><path d="m298.128906 211.554688 36.742188-63.640626c-7.652344-5.597656-15.917969-10.40625-24.679688-14.300781l-36.746094 63.644531c9.359376 2.785157 17.777344 7.746094 24.683594 14.296876zm0 0" fill="#ee5253"/><path d="m314.742188 238.554688 63.644531-36.746094c-3.894531-8.761719-8.703125-17.027344-14.300781-24.679688l-63.640626 36.742188c6.550782 6.90625 11.511719 15.328125 14.296876 24.683594zm0 0" fill="#ee5253"/><path d="m238.554688 197.257812-36.746094-63.644531c-8.761719 3.894531-17.027344 8.703125-24.679688 14.300781l36.742188 63.640626c6.90625-6.550782 15.328125-11.511719 24.683594-14.296876zm0 0" fill="#ee5253"/><path d="m177.128906 147.914062 11.488282 19.898438c6.4375-7.378906 13.648437-14.015625 21.5-19.804688l-8.308594-14.394531c-8.761719 3.894531-17.027344 8.703125-24.679688 14.300781zm0 0" fill="#d83941"/><g fill="#ee5253"><path d="m273.445312 314.742188 36.746094 63.644531c8.761719-3.894531 17.027344-8.703125 24.679688-14.300781l-36.742188-63.640626c-6.90625 6.550782-15.324218 11.511719-24.683594 14.296876zm0 0"/><path d="m300.449219 298.128906 63.636719 36.742188c5.601562-7.652344 10.40625-15.917969 14.300781-24.679688l-63.644531-36.746094c-2.785157 9.355469-7.746094 17.777344-14.292969 24.683594zm0 0"/><path d="m389.097656 241.738281h-73.503906c1.097656 4.578125 1.691406 9.351563 1.691406 14.261719s-.59375 9.683594-1.691406 14.261719h73.503906c.5-4.6875.761719-9.445313.761719-14.261719s-.261719-9.574219-.761719-14.261719zm0 0"/><path d="m197.257812 273.445312-63.644531 36.746094c3.894531 8.761719 8.703125 17.027344 14.300781 24.679688l63.640626-36.742188c-6.550782-6.90625-11.511719-15.328125-14.296876-24.683594zm0 0"/></g><path d="m172.261719 320.8125c-4.214844-7.636719-7.742188-15.746094-10.453125-24.273438l-.359375-1.132812-.421875-1.042969-27.414063 15.828125c3.894531 8.761719 8.703125 17.027344 14.300781 24.679688zm0 0" fill="#d83941"/><path d="m213.871094 300.445312-36.742188 63.640626c7.652344 5.597656 15.917969 10.40625 24.679688 14.300781l36.746094-63.644531c-9.355469-2.785157-17.777344-7.746094-24.683594-14.296876zm0 0" fill="#ee5253"/><path d="m188.617188 344.1875-11.488282 19.898438c7.652344 5.597656 15.917969 10.40625 24.679688 14.300781l8.308594-14.394531c-7.851563-5.789063-15.0625-12.425782-21.5-19.804688zm0 0" fill="#d83941"/><path d="m256 317.285156c-4.910156 0-9.683594-.597656-14.261719-1.691406v73.503906c4.6875.5 9.445313.761719 14.261719.761719s9.574219-.261719 14.261719-.761719v-73.503906c-4.578125 1.09375-9.351563 1.691406-14.261719 1.691406zm0 0" fill="#ee5253"/><path d="m241.738281 381.285156v7.8125c4.6875.5 9.445313.761719 14.261719.761719s9.574219-.261719 14.261719-.761719v-.390625c-9.871094-1.433593-19.425781-3.941406-28.523438-7.421875zm0 0" fill="#d83941"/><path d="m256 90.980469c-90.992188 0-165.019531 74.027343-165.019531 165.019531s74.027343 165.019531 165.019531 165.019531 165.019531-74.027343 165.019531-165.019531-74.027343-165.019531-165.019531-165.019531zm0 298.363281c-73.527344 0-133.34375-59.816406-133.34375-133.34375s59.816406-133.34375 133.34375-133.34375 133.34375 59.816406 133.34375 133.34375-59.816406 133.34375-133.34375 133.34375zm0 0" fill="#ff6b6b"/><path d="m132.355469 305.90625c-6.25-15.421875-9.699219-32.265625-9.699219-49.90625s3.449219-34.484375 9.699219-49.90625c19.566406-61.53125 74.296875-107.53125 140.472656-114.265625-5.535156-.5625-11.148437-.851563-16.828125-.851563-90.992188 0-165.019531 74.03125-165.019531 165.023438s74.027343 165.019531 165.019531 165.019531c5.679688 0 11.292969-.289062 16.828125-.851562-66.175781-6.730469-120.90625-52.730469-140.472656-114.261719zm0 0" fill="#ee5253"/><path d="m256 193.683594c-34.359375 0-62.316406 27.953125-62.316406 62.316406s27.957031 62.316406 62.316406 62.316406c34.363281 0 62.316406-27.953125 62.316406-62.316406s-27.953125-62.316406-62.316406-62.316406zm0 0" fill="#e4eaf8"/><path d="m224.589844 256c0-29.027344 19.953125-53.484375 46.863281-60.375-4.941406-1.265625-10.121094-1.941406-15.453125-1.941406-34.359375 0-62.316406 27.953125-62.316406 62.316406s27.957031 62.316406 62.316406 62.316406c5.332031 0 10.511719-.675781 15.453125-1.941406-26.910156-6.890625-46.863281-31.347656-46.863281-60.375zm0 0" fill="#c7d2e5"/><path d="m256 215.785156c-22.175781 0-40.214844 18.039063-40.214844 40.214844s18.039063 40.214844 40.214844 40.214844 40.214844-18.039063 40.214844-40.214844-18.039063-40.214844-40.214844-40.214844zm0 0" fill="#c7d2e5"/><path d="m246.691406 256c0-16.703125 10.238282-31.054688 24.761719-37.125-4.757813-1.988281-9.976563-3.089844-15.453125-3.089844-22.175781 0-40.214844 18.039063-40.214844 40.214844s18.039063 40.214844 40.214844 40.214844c5.472656 0 10.695312-1.101563 15.453125-3.089844-14.523437-6.070312-24.761719-20.421875-24.761719-37.125zm0 0" fill="#bac7db"/><path d="m272.390625 253.199219-5.769531-9.996094c-1-1.730469-2.851563-2.796875-4.851563-2.796875h-11.539062c-2.003907 0-3.851563 1.066406-4.851563 2.796875l-5.769531 9.996094c-1.003906 1.734375-1.003906 3.867187 0 5.601562l5.769531 9.996094c1 1.730469 2.851563 2.800781 4.851563 2.800781h11.539062c2.003907 0 3.851563-1.070312 4.851563-2.800781l5.769531-9.996094c1.003906-1.734375 1.003906-3.867187 0-5.601562zm0 0" fill="#bac7db"/><path d="m264.566406 268.796875-5.769531-9.996094c-1-1.734375-1-3.867187 0-5.601562l5.769531-9.996094c.28125-.480469.628906-.90625 1.027344-1.277344-1.023438-.960937-2.378906-1.519531-3.824219-1.519531h-11.539062c-2.003907 0-3.851563 1.066406-4.851563 2.796875l-5.769531 9.996094c-1.003906 1.734375-1.003906 3.867187 0 5.601562l5.769531 9.996094c1 1.730469 2.851563 2.800781 4.851563 2.800781h11.539062c1.445313 0 2.800781-.5625 3.824219-1.519531-.394531-.375-.746094-.796875-1.027344-1.28125zm0 0" fill="#aabcd6"/></svg>