<?xml version="1.0" encoding="iso-8859-1"?>
<!-- Generator: Adobe Illustrator 19.0.0, SVG Export Plug-In . SVG Version: 6.00 Build 0)  -->
<svg version="1.1" id="Layer_1" xmlns="http://www.w3.org/2000/svg" xmlns:xlink="http://www.w3.org/1999/xlink" x="0px" y="0px"
	 viewBox="0 0 330 330" style="enable-background:new 0 0 330 330;" xml:space="preserve">
<g id="XMLID_967_">
	<path id="XMLID_968_" style="fill:#804C09;" d="M225,150v2.924C209.077,138.671,188.053,130,165,130s-44.077,8.671-60,22.924V150
		c-23.25,23.249-81.374,69.749-69.749,116.248c7.589,30.359,34.999,30.983,53.113,21.29C96.368,311.675,105,330,105,330
		s56.62,0,60,0c7.318,0,60,0,60,0s8.32-18.754,16.197-42.698c18.107,9.938,45.9,9.551,53.552-21.054
		C306.373,219.749,248.25,173.249,225,150z"/>
	<circle id="XMLID_969_" style="fill:#402604;" cx="90" cy="35" r="35"/>
	<circle id="XMLID_970_" style="fill:#FF9811;" cx="90" cy="35" r="15"/>
	<circle id="XMLID_971_" style="fill:#804C09;" cx="240" cy="35" r="35"/>
	<circle id="XMLID_972_" style="fill:#FF9811;" cx="240" cy="35" r="15"/>
	<path id="XMLID_973_" style="fill:#402604;" d="M105,152.924V150c-23.25,23.249-81.374,69.749-69.749,116.248
		c7.589,30.359,34.999,30.983,53.113,21.29C96.368,311.675,105,330,105,330s56.62,0,60,0c0,0,0-116,0-200
		C141.947,130,120.923,138.671,105,152.924z"/>
	<ellipse id="XMLID_974_" style="fill:#BE720D;" cx="165" cy="100" rx="95" ry="90"/>
	<path id="XMLID_975_" style="fill:#804C09;" d="M165,190c-52.468,0-95-40.294-95-90s42.532-90,95-90"/>
	<circle id="XMLID_976_" style="fill:#003638;" cx="125" cy="100" r="7.5"/>
	<circle id="XMLID_977_" style="fill:#003638;" cx="205" cy="100" r="7.5"/>
	<ellipse id="XMLID_978_" style="fill:#804C09;" cx="105" cy="285" rx="40" ry="45"/>
	<circle id="XMLID_979_" style="fill:#FF9811;" cx="104.375" cy="297.5" r="17.5"/>
	<ellipse id="XMLID_980_" style="fill:#BE720D;" cx="225" cy="285" rx="40" ry="45"/>
	<circle id="XMLID_981_" style="fill:#FF9811;" cx="225.625" cy="297.5" r="17.5"/>
	<ellipse id="XMLID_982_" style="fill:#FFC170;" cx="165" cy="150" rx="60" ry="40"/>
	<path id="XMLID_983_" style="fill:#FF9811;" d="M165,190c-33.137,0-60-17.908-60-40s26.863-40,60-40"/>
	<path id="XMLID_984_" style="fill:#003638;" d="M185,140c0,8.836-8.954,20-20,20s-20-11.164-20-20s8.954-10,20-10
		S185,131.164,185,140z"/>
</g>
<g>
</g>
<g>
</g>
<g>
</g>
<g>
</g>
<g>
</g>
<g>
</g>
<g>
</g>
<g>
</g>
<g>
</g>
<g>
</g>
<g>
</g>
<g>
</g>
<g>
</g>
<g>
</g>
<g>
</g>
</svg>
