<?xml version="1.0" encoding="iso-8859-1"?>
<!-- Generator: Adobe Illustrator 19.0.0, SVG Export Plug-In . SVG Version: 6.00 Build 0)  -->
<svg version="1.1" id="Capa_1" xmlns="http://www.w3.org/2000/svg" xmlns:xlink="http://www.w3.org/1999/xlink" x="0px" y="0px"
	 viewBox="0 0 512.001 512.001" style="enable-background:new 0 0 512.001 512.001;" xml:space="preserve">
<path style="fill:#E2C01A;" d="M495.571,311.928C206.229,300.229,61.489,94.106,61.489,94.106l-0.063,0.02
	c9.623,27.517,83.479,219.354,303.407,318.704c34.057-4.479,103.579-27.234,142.897-72.445
	C517.187,329.512,509.97,312.51,495.571,311.928z"/>
<path style="fill:#D6B013;" d="M383.597,359.257c-63.647,0-113.273-15.959-143.697-29.347
	c-33.186-14.603-51.16-29.173-51.909-29.786c-3.304-2.704-3.79-7.576-1.085-10.88c2.703-3.302,7.571-3.789,10.876-1.088
	c0.332,0.269,17.623,14.158,48.925,27.855c28.965,12.675,76.225,27.783,136.889,27.783c4.27,0,7.731,3.462,7.731,7.731
	C391.328,355.796,387.867,359.257,383.597,359.257z"/>
<path style="fill:#F2D422;" d="M60.606,90.803c0,0,75.243,240.365,347.34,339.454c13.541,4.931,15.249,23.323,2.934,30.808
	c-24.628,14.97-68.683,31.754-139.615,27.813C147.952,482.026-62.951,299.504,18.034,90.803H60.606z"/>
<g>
	<path style="fill:#E2C01A;" d="M282.061,439.936c-0.708,0-1.427-0.098-2.142-0.304c-49.164-14.148-92.922-39.094-130.06-74.144
		c-29.621-27.956-55.085-62.345-75.687-102.211c-34.99-67.711-43.727-127.054-44.081-129.547c-0.601-4.227,2.338-8.142,6.565-8.744
		c4.226-0.597,8.14,2.337,8.743,6.562l0,0c0.084,0.589,8.826,59.633,42.738,125.07c45.157,87.136,111.121,143.711,196.058,168.154
		c4.103,1.181,6.473,5.465,5.292,9.568C288.512,437.73,285.42,439.936,282.061,439.936z"/>
	<path style="fill:#E2C01A;" d="M291.886,488.877C168.573,482.026-42.331,299.504,38.654,90.803h-20.62
		c-80.985,208.702,129.919,391.224,253.231,398.074c10.959,0.609,21.273,0.72,30.977,0.423
		C298.849,489.204,295.41,489.073,291.886,488.877z"/>
</g>
<path style="fill:#585A60;" d="M407.946,430.256c-7.463-2.718-14.769-5.548-21.938-8.47c-6.948,16.245-6.846,34.927,0.641,51.303
	c9.572-3.848,17.611-8,24.231-12.024C423.194,453.579,421.487,435.188,407.946,430.256z"/>
<path style="fill:#D6B013;" d="M105.355,143.716c-29.239-28.784-43.866-49.61-43.866-49.61l-0.063,0.02
	c9.623,27.517,83.479,219.354,303.407,318.704c5.651-0.743,12.294-2.002,19.598-3.77
	C224.343,336.385,141.905,214.721,105.355,143.716z"/>
<path style="fill:#E2C01A;" d="M42.99,22.54h-7.34c-9.689,0-17.616,7.927-17.616,17.616v50.646h42.572V40.156
	C60.606,30.467,52.679,22.54,42.99,22.54z"/>
<g>
	<path style="fill:#D6B013;" d="M49.628,23.856c-2.052-0.843-4.292-1.316-6.639-1.316h-7.34c-9.689,0-17.616,7.927-17.616,17.616
		v50.646H38.65V40.157C38.651,32.814,43.207,26.492,49.628,23.856z"/>
	<path style="fill:#D6B013;" d="M77.908,132.641c-12.24-25.671-17.302-41.838-17.302-41.838H18.034
		c-5.464,14.081-9.588,28.041-12.511,41.838H77.908z"/>
</g>
<path style="fill:#CCA70E;" d="M26.143,132.641c2.923-13.797,7.047-27.757,12.511-41.838h-20.62
	c-0.021,0.054-0.041,0.109-0.062,0.163c-0.638,1.648-1.258,3.295-1.86,4.94c-0.176,0.481-0.341,0.96-0.514,1.44
	c-0.444,1.235-0.886,2.469-1.31,3.702c-0.17,0.494-0.33,0.987-0.497,1.48c-0.417,1.234-0.83,2.468-1.226,3.7
	c-0.142,0.442-0.278,0.883-0.418,1.324c-0.411,1.299-0.815,2.597-1.204,3.894c-0.11,0.366-0.215,0.732-0.324,1.098
	c-0.409,1.386-0.809,2.772-1.193,4.155c-0.078,0.28-0.154,0.56-0.231,0.84c-0.407,1.485-0.802,2.968-1.181,4.449
	c-0.048,0.186-0.095,0.373-0.142,0.559c-0.402,1.586-0.789,3.17-1.159,4.752c-0.022,0.095-0.045,0.19-0.067,0.285
	c-0.391,1.683-0.766,3.364-1.122,5.042c-0.001,0.005-0.002,0.009-0.003,0.014L26.143,132.641L26.143,132.641z"/>
<path style="fill:#585A60;" d="M495.571,311.928c-7.754-0.313-15.383-0.794-22.929-1.379c-1.055,18.237,5.62,35.034,17.254,47.333
	c7.22-6.11,13.092-12.043,17.835-17.496C517.187,329.512,509.97,312.51,495.571,311.928z"/>
<g>
</g>
<g>
</g>
<g>
</g>
<g>
</g>
<g>
</g>
<g>
</g>
<g>
</g>
<g>
</g>
<g>
</g>
<g>
</g>
<g>
</g>
<g>
</g>
<g>
</g>
<g>
</g>
<g>
</g>
</svg>
