<?xml version="1.0" encoding="iso-8859-1"?>
<!-- Generator: Adobe Illustrator 19.0.0, SVG Export Plug-In . SVG Version: 6.00 Build 0)  -->
<svg version="1.1" id="Layer_1" xmlns="http://www.w3.org/2000/svg" xmlns:xlink="http://www.w3.org/1999/xlink" x="0px" y="0px"
	 viewBox="0 0 512.001 512.001" style="enable-background:new 0 0 512.001 512.001;" xml:space="preserve">
<path style="fill:#FFD41D;" d="M512.001,163.801c-26.799,86.454-100.239,152.049-190.442,167.993h-0.012
	c-15.343,2.711-31.183,3.98-47.357,3.68c-4.176-0.081-8.318-0.265-12.436-0.554L74.449,300.633l-47.691-98.44l39.051-18.297
	l30.906-29.764c5.791,4.361,11.744,8.514,17.847,12.471c46.711,30.225,102.155,48.222,161.89,49.353
	c78.02,1.477,149.823-26.072,205.128-72.725L512.001,163.801z"/>
<path style="fill:#333333;" d="M56.653,192.713c0,0-2.615-52.18-16.181-107.82l21.705-8.821c0,0,13.756,56.481,34.539,78.063"/>
<path style="fill:#4D4D4D;" d="M0.742,175.376c0,0,23.036-46.893,38.176-102.126l23.258,2.821c0,0-15.381,56.061-7.684,85.016"/>
<path style="fill:#EFC71D;" d="M321.547,331.793c-15.343,2.711-31.183,3.98-47.357,3.68c-4.176-0.081-8.318-0.265-12.436-0.554
	L74.449,300.633l-47.691-98.44l39.051-18.297l30.906-29.764c5.791,4.361,11.744,8.514,17.847,12.471
	C115.092,168.888,149.701,314.639,321.547,331.793z"/>
<path style="fill:#FFD41D;" d="M412.926,371.063c-31.667,30.306-70.51,51.025-111.983,60.947
	c-58.778,14.074-122.851,6.472-179.264-26.245C37.741,357.081-6.363,266.047,0.743,175.372l27.653-7.349l26.095-6.933
	c25.553,57.301,68.734,107.38,127.165,141.274c67.499,39.143,143.651,49.906,214.646,35.947L412.926,371.063z"/>
<path style="fill:#EFC71D;" d="M300.943,432.01c-58.778,14.074-122.851,6.472-179.264-26.245
	C37.741,357.081-6.363,266.047,0.743,175.372l27.653-7.349c0,0-22.854,236.161,272.512,263.987H300.943z"/>
<g>
	<path style="fill:#4D4D4D;" d="M396.302,338.305l16.624,32.752c-7.683,7.349-15.793,14.144-24.261,20.35l-15.459-49.456
		C380.959,341.028,388.654,339.805,396.302,338.305z"/>
	<path style="fill:#4D4D4D;" d="M481.579,143.231l30.421,20.569c-3.334,10.74-7.372,21.158-12.09,31.194l-39.051-35.728
		C467.989,154.214,474.911,148.861,481.579,143.231z"/>
</g>
<g>
</g>
<g>
</g>
<g>
</g>
<g>
</g>
<g>
</g>
<g>
</g>
<g>
</g>
<g>
</g>
<g>
</g>
<g>
</g>
<g>
</g>
<g>
</g>
<g>
</g>
<g>
</g>
<g>
</g>
</svg>
