<?xml version="1.0" encoding="iso-8859-1"?>
<!-- Generator: Adobe Illustrator 18.0.0, SVG Export Plug-In . SVG Version: 6.00 Build 0)  -->
<!DOCTYPE svg PUBLIC "-//W3C//DTD SVG 1.1//EN" "http://www.w3.org/Graphics/SVG/1.1/DTD/svg11.dtd">
<svg version="1.1" id="Capa_1" xmlns="http://www.w3.org/2000/svg" xmlns:xlink="http://www.w3.org/1999/xlink" x="0px" y="0px"
	 viewBox="0 0 56.745 56.745" style="enable-background:new 0 0 56.745 56.745;" xml:space="preserve">
<g>
	<path style="fill:#88C057;" d="M45.146,13.699c0-0.995-0.563-1.851-1.387-2.307c0.39-0.796,0.615-1.684,0.615-2.626
		c0-3.353-2.767-6.071-6.18-6.071c-0.892,0-1.738,0.189-2.504,0.524c-0.913-1.235-2.39-2.042-4.062-2.042
		c-1.895,0-3.543,1.032-4.398,2.554c-0.942-0.651-2.088-1.036-3.327-1.036c-3.2,0-5.794,2.548-5.794,5.692
		c0,0.235,0.019,0.466,0.047,0.693c-2.274,0.769-3.91,2.883-3.91,5.378c0,1.946,0.995,3.662,2.511,4.688
		c-0.605,0.815-0.966,1.815-0.966,2.901c0,2.724,2.248,4.933,5.021,4.933c1.161,0,2.226-0.391,3.077-1.04
		c1.12,1.546,2.955,2.558,5.035,2.558c2.198,0,4.123-1.131,5.219-2.829c0.737,1.237,2.101,2.07,3.665,2.07
		c2.347,0,4.249-1.869,4.249-4.174c0-0.517-0.1-1.01-0.275-1.467c1.524-0.634,2.593-2.117,2.593-3.845
		c0-0.818-0.243-1.58-0.658-2.224C44.563,15.58,45.146,14.711,45.146,13.699z"/>
	<path style="fill:#659C35;" d="M22.832,26.543c-0.62,0.271-1.298,0.437-2.021,0.437c-2.773,0-5.021-2.209-5.021-4.933
		c0-1.086,0.361-2.086,0.966-2.901c-1.516-1.026-2.511-2.742-2.511-4.688c0-0.942,0.235-1.83,0.648-2.611
		c-1.657-0.985-3.838-0.786-5.269,0.619c-0.126,0.124-0.239,0.255-0.346,0.389c-1.607-0.77-3.599-0.503-4.934,0.808
		c-1.041,1.023-1.436,2.439-1.189,3.762C2.4,17.54,1.675,17.88,1.094,18.451c-1.458,1.432-1.458,3.755,0,5.187
		c0.61,0.6,1.38,0.945,2.175,1.042c-0.239,1.392,0.185,2.872,1.278,3.946c1.156,1.135,2.773,1.535,4.258,1.208
		c-0.274,1.031-0.003,2.173,0.819,2.982c1.234,1.212,3.234,1.212,4.468,0c0.277-0.272,0.488-0.583,0.641-0.914
		c1.141,0.454,2.496,0.226,3.421-0.682c0.438-0.43,0.717-0.956,0.844-1.509c0.686,0.202,1.457,0.046,1.999-0.486
		c0.532-0.523,0.695-1.264,0.505-1.929C21.979,27.131,22.42,26.864,22.832,26.543z"/>
	<path style="fill:#659C35;" d="M55.484,19.249c-0.126-0.124-0.259-0.235-0.396-0.34c0.784-1.579,0.512-3.536-0.823-4.847
		c-1.041-1.023-2.483-1.411-3.83-1.168c-0.118-0.741-0.463-1.454-1.044-2.024c-1.458-1.433-3.822-1.433-5.281,0
		c-0.095,0.094-0.174,0.198-0.256,0.299c-0.033,0.074-0.06,0.152-0.095,0.224c0.824,0.455,1.387,1.312,1.387,2.307
		c0,1.012-0.583,1.881-1.43,2.329c0.414,0.644,0.658,1.405,0.658,2.224c0,1.728-1.069,3.211-2.593,3.845
		c0.175,0.457,0.275,0.95,0.275,1.467c0,2.305-1.902,4.174-4.249,4.174c-0.549,0-1.071-0.108-1.553-0.295
		c0.052,0.059,0.082,0.129,0.138,0.184c0.438,0.43,0.973,0.705,1.536,0.83c-0.206,0.674-0.047,1.432,0.495,1.964
		c0.532,0.523,1.287,0.683,1.964,0.496c0.221,0.62,0.578,1.203,1.083,1.698c1.795,1.763,4.704,1.763,6.499,0
		c0.469-0.461,0.812-0.997,1.036-1.569c1.141,0.178,2.349-0.161,3.229-1.025c0.996-0.979,1.311-2.373,0.946-3.615
		c0.843-0.144,1.652-0.533,2.304-1.174C57.166,23.581,57.166,20.902,55.484,19.249z"/>
	<path style="fill:#436B1C;" d="M40.387,30.918c-0.677,0.186-1.431,0.027-1.964-0.496c-0.317-0.311-0.503-0.7-0.561-1.104
		c-0.033-0.225-0.109-0.442-0.222-0.635c-3.918,4.044-6.655,11.494-6.655,11.494c1.301-4.626,1.096-9.242,0.693-12.321
		c-0.829,0.409-1.764,0.642-2.756,0.642c-0.966,0-1.875-0.226-2.688-0.615c1.751,6.191,0.751,16.294,0.751,16.294
		c-1.874-7.495-5.994-12.181-7.941-14.058c-0.139,0.109-0.264,0.235-0.352,0.393c-0.14,0.254-0.32,0.493-0.539,0.709
		c-0.925,0.909-2.281,1.136-3.421,0.682c-0.153,0.331-0.364,0.642-0.641,0.914c-0.33,0.324-0.717,0.555-1.127,0.706
		c5.021,0,10.78,9.994,11.523,20.655c0.055,0.784,0.712,1.392,1.498,1.392h5c0.77,0,1.412-0.577,1.499-1.341
		c0.459-4.056,1.876-21.012,9.746-21.012c-0.269-0.171-0.525-0.368-0.761-0.599C40.966,32.121,40.608,31.538,40.387,30.918z"/>
	<path style="fill:#659C35;" d="M23.468,15.177c-0.121,0-0.244-0.022-0.364-0.069c-2.517-0.984-3.765-3.833-2.781-6.35
		c0.984-2.516,3.828-3.764,6.351-2.782c0.514,0.201,0.769,0.781,0.567,1.295c-0.201,0.515-0.779,0.768-1.296,0.568
		c-1.491-0.583-3.177,0.156-3.759,1.646c-0.583,1.491,0.156,3.177,1.646,3.759c0.514,0.201,0.769,0.781,0.567,1.295
		C24.245,14.936,23.867,15.177,23.468,15.177z"/>
	<path style="fill:#88C057;" d="M49.084,25.647c-0.604,0-1.207-0.113-1.786-0.339c-1.219-0.477-2.18-1.399-2.705-2.599
		c-0.222-0.506,0.009-1.096,0.515-1.317c0.51-0.222,1.097,0.01,1.317,0.515c0.311,0.71,0.88,1.256,1.602,1.539
		c0.723,0.282,1.511,0.265,2.221-0.045c0.71-0.311,1.256-0.88,1.538-1.602c0.282-0.722,0.267-1.51-0.045-2.22
		c-0.222-0.506,0.009-1.096,0.515-1.317c0.509-0.221,1.096,0.009,1.317,0.515c0.525,1.199,0.553,2.531,0.076,3.751
		s-1.399,2.181-2.599,2.706C50.419,25.508,49.752,25.647,49.084,25.647z"/>
	<path style="fill:#659C35;" d="M35.391,23.175c-1.711,0-3.375-0.896-4.275-2.489c-0.272-0.481-0.103-1.091,0.378-1.363
		c0.479-0.272,1.091-0.103,1.362,0.378c0.382,0.675,1.003,1.161,1.75,1.369c0.745,0.206,1.529,0.111,2.204-0.27
		s1.161-1.002,1.369-1.75c0.207-0.747,0.111-1.53-0.27-2.204c-0.272-0.481-0.103-1.091,0.378-1.363
		c0.479-0.271,1.091-0.103,1.362,0.378c0.645,1.14,0.807,2.462,0.456,3.724s-1.172,2.311-2.312,2.955
		C37.034,22.971,36.207,23.175,35.391,23.175z"/>
	<path style="fill:#659C35;" d="M31.881,17.778c-0.716,0-1.441-0.157-2.128-0.489c-2.433-1.178-3.454-4.115-2.277-6.548
		c0.241-0.496,0.837-0.705,1.336-0.465c0.497,0.241,0.705,0.839,0.465,1.336c-0.697,1.44-0.093,3.179,1.348,3.876
		c1.44,0.695,3.179,0.093,3.876-1.348c0.24-0.496,0.836-0.706,1.336-0.465c0.497,0.241,0.705,0.839,0.465,1.336
		C35.455,16.759,33.702,17.778,31.881,17.778z"/>
	<path style="fill:#659C35;" d="M24.279,23.391c-0.667,0-1.333-0.138-1.962-0.413c-2.476-1.083-3.61-3.978-2.528-6.455
		c0.221-0.504,0.806-0.737,1.316-0.516c0.506,0.221,0.737,0.811,0.516,1.317c-0.64,1.466,0.031,3.181,1.497,3.821
		c0.712,0.311,1.5,0.326,2.221,0.043c0.722-0.283,1.29-0.829,1.601-1.54c0.221-0.504,0.807-0.736,1.316-0.516
		c0.506,0.221,0.737,0.811,0.516,1.317c-0.523,1.2-1.483,2.124-2.703,2.601C25.489,23.278,24.884,23.391,24.279,23.391z"/>
	<path style="fill:#659C35;" d="M35.404,12.479c-0.158,0-0.317-0.007-0.477-0.022c-1.304-0.125-2.48-0.75-3.313-1.76
		c-0.352-0.426-0.291-1.056,0.135-1.408c0.428-0.353,1.057-0.29,1.408,0.135c0.493,0.598,1.189,0.968,1.961,1.042
		c0.782,0.079,1.527-0.158,2.124-0.65c1.234-1.018,1.41-2.851,0.392-4.085c-0.352-0.426-0.291-1.056,0.135-1.408
		c0.428-0.353,1.057-0.29,1.408,0.135c1.72,2.084,1.423,5.18-0.661,6.9C37.628,12.089,36.538,12.479,35.404,12.479z"/>
	<path style="fill:#88C057;" d="M9.882,24.546c-0.613,0-1.235-0.115-1.837-0.359c-2.504-1.016-3.715-3.88-2.699-6.385
		c0.207-0.512,0.79-0.757,1.303-0.551c0.512,0.208,0.758,0.791,0.551,1.303c-0.602,1.482,0.115,3.178,1.598,3.78
		c1.486,0.604,3.18-0.115,3.78-1.598c0.208-0.513,0.793-0.758,1.303-0.551c0.512,0.208,0.759,0.791,0.551,1.303
		C13.658,23.39,11.82,24.546,9.882,24.546z"/>
</g>
<g>
</g>
<g>
</g>
<g>
</g>
<g>
</g>
<g>
</g>
<g>
</g>
<g>
</g>
<g>
</g>
<g>
</g>
<g>
</g>
<g>
</g>
<g>
</g>
<g>
</g>
<g>
</g>
<g>
</g>
</svg>
