<?xml version="1.0" encoding="iso-8859-1"?>
<!-- Generator: Adobe Illustrator 19.0.0, SVG Export Plug-In . SVG Version: 6.00 Build 0)  -->
<svg version="1.1" id="Layer_1" xmlns="http://www.w3.org/2000/svg" xmlns:xlink="http://www.w3.org/1999/xlink" x="0px" y="0px"
	 viewBox="0 0 511.992 511.992" style="enable-background:new 0 0 511.992 511.992;" xml:space="preserve">
<path style="fill:#739B3A;" d="M384.462,68.179c-257.948-124.544-333.29,82.639-333.29,82.639l28.406,97.451L184.201,283.4
	l182.324-61.288C366.524,222.113,555.583,150.802,384.462,68.179z"/>
<path style="opacity:0.1;enable-background:new    ;" d="M216.965,58.898c20.421-14.391,40.625-26.015,45.609-28.843
	c-13.672-1.578-26.547-2.031-38.671-1.516c-6,3.859-12.5,8.188-19.078,12.812c-14.484,10.203-26.343,19.781-35.218,28.484
	c-9.359,9.156-15.531,17.452-18.718,25.14c-0.156,0.328-0.281,0.672-0.406,1.016c-0.812,2.141-1.406,4.234-1.766,6.281
	c-4.766,27.687,10.812,42.999,24.546,56.53c5.5,5.421,11.203,11.031,15.625,17.374c3.047,4.359,2.328,6.797,2.062,7.719
	c-1.812,6.266-12.109,12.359-16.781,14.312c-5.453,2.234-8.062,8.469-5.812,13.921c1.688,4.125,5.672,6.609,9.859,6.609
	c1.359,0,2.734-0.25,4.062-0.797c2.437-1,23.921-10.296,29.14-28.015c1.766-6,2.328-15.39-5.031-25.953
	c-5.562-7.968-11.968-14.281-18.156-20.375c-13.171-12.953-20.312-20.75-18.89-34.827c27.593-4.125,64.655-5.984,96.655,5.047
	c20.483,7.062,29.312,16.218,29.405,16.312l-0.078-0.078l15.812-14.327c-1.562-1.719-36.405-38.812-126.997-30.266
	c0.125-0.109,0.234-0.219,0.344-0.344C192.513,77.241,203.45,68.413,216.965,58.898z"/>
<path style="fill:#81AF46;" d="M449.711,64.148c-51.797-7.172-115.842,10.468-139.404,38.78s-42.514,67.311-63.389,84.279
	c-20.875,16.984-59.733,20.672-59.733,20.672l-8.968,124.849l211.479-11.219l78.093-143.287
	C467.788,178.223,501.506,71.335,449.711,64.148z"/>
<g style="opacity:0.1;">
	<path d="M311.244,270.736c-3.797,0-7.484-2.031-9.406-5.609c-2.797-5.172-0.859-11.655,4.328-14.436
		c55-29.672,91.623-130.388,91.982-131.404c1.984-5.546,8.094-8.421,13.641-6.437s8.438,8.078,6.453,13.625
		c-1.594,4.453-39.733,109.435-101.951,142.98C314.682,270.33,312.947,270.736,311.244,270.736z"/>
</g>
<path style="fill:#8CC153;" d="M298.275,242.55c-93.294,24.155-122.293,74.678-122.293,74.678s-41.749,207.15,170.372,149.996
	c212.12-57.139,172.121-330.969,139.449-319.547C426.805,168.317,391.57,218.394,298.275,242.55z"/>
<g style="opacity:0.1;">
	<path d="M272.558,431.414c-4.281,0-8.344-2.609-9.953-6.859c-2.109-5.516,0.656-11.672,6.156-13.781
		c25.749-9.828,66.342-33.844,113.435-92.373c28.593-35.531,46.062-67.209,46.233-67.538c2.828-5.156,9.312-7.047,14.484-4.219
		c5.156,2.828,7.062,9.312,4.234,14.467c-0.734,1.344-18.391,33.383-48.078,70.352c-40.279,50.139-81.561,83.529-122.7,99.248
		C275.12,431.18,273.824,431.414,272.558,431.414z"/>
</g>
<path style="fill:#A0D468;" d="M218.371,225.191c-93.264-79.67-199.011-91.998-207.746-52.905
	c-45.358,202.69,55.937,328.485,276.463,309.485C507.6,462.771,342.65,331.369,218.371,225.191z"/>
<path style="opacity:0.1;enable-background:new    ;" d="M304.369,479.709c-36.092-13.797-70.451-35.062-102.106-63.186
	c-25.5-22.672-49.312-49.812-70.795-80.701c-36.765-52.859-54.108-98.913-54.28-99.366c-2.047-5.516-8.188-8.328-13.703-6.281
	c-5.531,2.047-8.344,8.188-6.281,13.719c0.719,1.953,18.25,48.6,56.405,103.614c22.453,32.359,47.42,60.859,74.201,84.717
	c23.078,20.531,47.546,37.656,73.093,51.141c8.531-0.297,17.265-0.828,26.187-1.594c6.203-0.531,12.093-1.172,17.702-1.875
	C304.65,479.834,304.51,479.771,304.369,479.709z"/>
<g>
</g>
<g>
</g>
<g>
</g>
<g>
</g>
<g>
</g>
<g>
</g>
<g>
</g>
<g>
</g>
<g>
</g>
<g>
</g>
<g>
</g>
<g>
</g>
<g>
</g>
<g>
</g>
<g>
</g>
</svg>
