<?xml version="1.0" encoding="iso-8859-1"?>
<!-- Generator: Adobe Illustrator 18.0.0, SVG Export Plug-In . SVG Version: 6.00 Build 0)  -->
<!DOCTYPE svg PUBLIC "-//W3C//DTD SVG 1.1//EN" "http://www.w3.org/Graphics/SVG/1.1/DTD/svg11.dtd">
<svg version="1.1" id="Capa_1" xmlns="http://www.w3.org/2000/svg" xmlns:xlink="http://www.w3.org/1999/xlink" x="0px" y="0px"
	 viewBox="0 0 56 56" style="enable-background:new 0 0 56 56;" xml:space="preserve">
<g>
	<path style="fill:#EEAF4B;" d="M27.5,42L27.5,42c-1.474,0-2.763-0.992-3.14-2.417l-5.509-20.816C18.407,16.282,20.318,14,22.842,14
		h9.315c2.524,0,4.435,2.282,3.991,4.767L30.64,39.583C30.263,41.008,28.974,42,27.5,42z"/>
	<path style="fill:#F4C44E;" d="M46.377,19.608c-3.316-2.409-7.864-3.764-10.607-3.383c0.383,0.753,0.541,1.633,0.379,2.542
		L30.64,39.583c-0.086,0.326-0.225,0.625-0.398,0.899c0.454,0.274,0.976,0.462,1.547,0.506h0
		c4.764,1.536,12.226-8.085,16.047-13.617C49.795,24.533,49.167,21.634,46.377,19.608z"/>
	<path style="fill:#F4C44E;" d="M24.36,39.583l-5.509-20.816c-0.164-0.918-0.003-1.806,0.388-2.564
		c-2.755-0.319-7.213,1.035-10.475,3.404c-2.79,2.026-3.418,4.926-1.459,7.764c3.82,5.533,11.283,15.153,16.047,13.617h0
		c0.527-0.041,1.012-0.204,1.442-0.443C24.602,40.256,24.453,39.933,24.36,39.583z"/>
	<g>
		<path style="fill:#F1B501;" d="M7.306,27.371c-0.377-0.546-0.656-1.094-0.845-1.638c-2.689,2.697-4.801,5.888-6.119,9.424
			c-1.419,3.805,1.809,7.732,5.457,6.664l11.099-3.247C13.304,35.616,9.631,30.738,7.306,27.371z"/>
		<path style="fill:#F1B501;" d="M55.658,35.158c-1.428-3.83-3.78-7.261-6.797-10.09c-0.159,0.76-0.494,1.534-1.025,2.304
			c-2.276,3.297-5.846,8.044-9.367,11.018l11.733,3.433C53.849,42.889,57.077,38.963,55.658,35.158z"/>
	</g>
	<path style="fill:#F4C44E;" d="M22.842,14c-0.042,0-0.08,0.012-0.121,0.014l1.639,6.195c0.377,1.425,1.666,2.417,3.14,2.417
		s2.763-0.992,3.14-2.417l1.639-6.195C32.237,14.012,32.2,14,32.158,14H22.842z"/>
</g>
<g>
</g>
<g>
</g>
<g>
</g>
<g>
</g>
<g>
</g>
<g>
</g>
<g>
</g>
<g>
</g>
<g>
</g>
<g>
</g>
<g>
</g>
<g>
</g>
<g>
</g>
<g>
</g>
<g>
</g>
</svg>
