<?xml version="1.0" encoding="iso-8859-1"?>
<!-- Generator: Adobe Illustrator 19.0.0, SVG Export Plug-In . SVG Version: 6.00 Build 0)  -->
<svg version="1.1" id="Capa_1" xmlns="http://www.w3.org/2000/svg" xmlns:xlink="http://www.w3.org/1999/xlink" x="0px" y="0px"
	 viewBox="0 0 512 512" style="enable-background:new 0 0 512 512;" xml:space="preserve">
<g transform="matrix(1.25 0 0 -1.25 28.928 4.254)">
	<path style="fill:#F7DECE;" d="M243.603-25.546C223.726-7.428,202.282,3.403,181.658,3.403
		c-67.765,0-144.565-115.785-144.565-228.894c0-11.746,0.951-22.877,2.422-33.624c12.757-92.666,77.366-147.082,142.143-147.082
		c72.282,0,144.565,67.596,144.565,180.706C326.222-146.811,289.032-66.939,243.603-25.546"/>
	<path style="fill:#E0AA94;" d="M243.603-25.546c35.033-42.393,61.537-108.641,61.537-174.116
		c0-108.544-68.331-173.405-136.661-173.405c-54.706,0-109.327,41.67-128.964,113.953c12.757-92.666,77.366-147.082,142.143-147.082
		c72.282,0,144.565,67.596,144.565,180.706C326.222-146.811,289.032-66.939,243.603-25.546"/>
</g>
<g>
</g>
<g>
</g>
<g>
</g>
<g>
</g>
<g>
</g>
<g>
</g>
<g>
</g>
<g>
</g>
<g>
</g>
<g>
</g>
<g>
</g>
<g>
</g>
<g>
</g>
<g>
</g>
<g>
</g>
</svg>
