<?xml version="1.0" encoding="iso-8859-1"?>
<!-- Generator: Adobe Illustrator 19.0.0, SVG Export Plug-In . SVG Version: 6.00 Build 0)  -->
<svg version="1.1" id="Layer_1" xmlns="http://www.w3.org/2000/svg" xmlns:xlink="http://www.w3.org/1999/xlink" x="0px" y="0px"
	 viewBox="0 0 318.205 318.205" style="enable-background:new 0 0 318.205 318.205;" xml:space="preserve">
<g id="XMLID_1464_">
	<path id="XMLID_1465_" style="fill:#FF5959;" d="M289.684,85.928v187.42c0,22.675-18.379,41.054-41.054,41.054H69.573
		c-22.675,0-41.054-18.379-41.054-41.054V85.928c0-22.674,18.379-41.054,41.054-41.054H248.63
		C271.305,44.874,289.684,63.254,289.684,85.928z"/>
	<path id="XMLID_1466_" style="fill:#FFE165;" d="M289.684,24.415v8.572c0,11.383-9.228,20.611-20.611,20.611H49.131
		c-11.383,0-20.611-9.228-20.611-20.611v-8.572c0-11.383,9.228-20.611,20.611-20.611h219.943
		C280.456,3.804,289.684,13.032,289.684,24.415z"/>
	<path id="XMLID_1467_" style="fill:#FFE165;" d="M273.299,45.9H44.902L0,84.396l7.166,3.736c4.261,2.221,7.705,4.891,11.036,7.473
		c6.905,5.353,12.869,9.975,25.352,9.975c12.473,0,18.443-4.622,25.366-9.981c7.499-5.805,15.998-12.386,32.401-12.386
		c16.398,0,24.9,6.576,32.419,12.392c6.906,5.352,12.87,9.974,25.35,9.974c12.475,0,18.445-4.622,25.368-9.981
		c7.499-5.805,15.998-12.386,32.401-12.386c16.413,0,24.913,6.581,32.421,12.394c6.912,5.351,12.882,9.973,25.355,9.973
		c12.487,0,18.451-4.622,25.389-9.999c3.328-2.575,6.769-5.237,11.013-7.448l7.168-3.735L273.299,45.9z"/>
	<path id="XMLID_1468_" style="fill:#FFFEB9;" d="M177.227,176.586v40.445c0,17.72-14.366,32.086-32.086,32.086H28.52V144.499
		h116.621C162.861,144.499,177.227,158.866,177.227,176.586z"/>
</g>
<g>
</g>
<g>
</g>
<g>
</g>
<g>
</g>
<g>
</g>
<g>
</g>
<g>
</g>
<g>
</g>
<g>
</g>
<g>
</g>
<g>
</g>
<g>
</g>
<g>
</g>
<g>
</g>
<g>
</g>
</svg>
