<?xml version="1.0" encoding="iso-8859-1"?>
<!-- Generator: Adobe Illustrator 19.0.0, SVG Export Plug-In . SVG Version: 6.00 Build 0)  -->
<svg version="1.1" id="Layer_1" xmlns="http://www.w3.org/2000/svg" xmlns:xlink="http://www.w3.org/1999/xlink" x="0px" y="0px"
	 viewBox="0 0 512 512" style="enable-background:new 0 0 512 512;" xml:space="preserve">
<path style="fill:#5AAAE7;" d="M348.911,0H191.477c-11.506,0-20.921,7.073-20.921,15.717v31.692c0,8.644,9.415,15.717,20.921,15.717
	h157.435c11.506,0,20.921-7.073,20.921-15.717V15.717C369.831,7.073,360.418,0,348.911,0z"/>
<path style="fill:#96C8EF;" d="M171.948,42.637c0,0-12.59-0.394-19.853,8.881L68.196,156.824l161.371,38.928l126.691-19.051
	l13.574-134.059L171.948,42.637z"/>
<g>
	<path style="fill:#5AAAE7;" d="M166.231,91.912c-1.713,0-3.436-0.558-4.879-1.707c-3.384-2.697-3.942-7.628-1.246-11.013
		l8.039-10.091c2.699-3.385,7.629-3.941,11.013-1.246c3.384,2.697,3.942,7.628,1.246,11.013l-8.039,10.091
		C170.818,90.901,168.535,91.912,166.231,91.912z"/>
	<path style="fill:#5AAAE7;" d="M130.37,136.924c-1.713,0-3.435-0.558-4.879-1.707c-3.384-2.697-3.942-7.628-1.246-11.013
		l21.949-27.551c2.699-3.384,7.627-3.94,11.013-1.246c3.384,2.697,3.942,7.628,1.246,11.013l-21.95,27.551
		C134.956,135.913,132.674,136.924,130.37,136.924z"/>
</g>
<path style="fill:#D1E7F8;" d="M77.212,152.423h253.263c6.322,0,11.494,5.172,11.494,11.494v336.589
	c0,6.322-5.172,11.494-11.494,11.494H77.212c-6.322,0-11.494-5.172-11.494-11.494V163.917
	C65.718,157.596,70.89,152.423,77.212,152.423z"/>
<rect x="65.718" y="370.521" style="fill:#96C8EF;" width="380.552" height="25.119"/>
<path style="fill:#5AAAE7;" d="M443.746,152.682L377.703,47.591c-1.975-3.141-4.845-4.948-7.866-4.951c-0.002,0-0.004,0-0.006,0
	c-3.019,0-5.889,1.801-7.864,4.938l-66.043,104.845c-1.636,2.597-2.536,5.916-2.536,9.35v335.939c0,7.891,4.657,14.288,10.4,14.288
	h132.085c5.744,0,10.4-6.398,10.4-14.288V162.019C446.274,158.59,445.377,155.276,443.746,152.682z"/>
<path style="fill:#3D9AE2;" d="M369.831,42.64c-3.019,0-5.889,1.801-7.864,4.938l-66.043,104.845
	c-1.636,2.597-2.536,5.916-2.536,9.35v335.939c0,7.891,4.657,14.288,10.4,14.288h66.043L369.831,42.64L369.831,42.64z"/>
<path style="fill:#96C8EF;" d="M295.924,152.423c-1.636,2.597-2.536,5.916-2.536,9.35v335.939c0,7.891,4.657,14.288,10.4,14.288
	h132.085c5.744,0,10.4-6.398,10.4-14.288V162.019c0-3.428-0.897-6.743-2.528-9.337L295.924,152.423z"/>
<rect x="293.393" y="370.521" style="fill:#5AAAE7;" width="152.889" height="25.119"/>
<rect x="65.718" y="247.171" style="fill:#006DF0;" width="380.552" height="123.35"/>
<rect x="293.393" y="247.171" style="fill:#00479B;" width="152.889" height="123.35"/>
<g>
	<path style="fill:#FFFFFF;" d="M139.315,343.568c-4.329,0-7.837-3.508-7.837-7.837v-29.703l-5.694,9.652
		c-1.396,2.367-3.929,3.829-6.676,3.855c-0.025,0-0.05,0-0.074,0c-2.72,0-5.246-1.411-6.674-3.728l-6.656-10.811v30.735
		c0,4.329-3.508,7.837-7.837,7.837s-7.837-3.508-7.837-7.837v-58.411c0-3.506,2.329-6.585,5.702-7.54
		c3.37-0.958,6.971,0.446,8.808,3.431l14.349,23.306l13.675-23.18c1.795-3.043,5.405-4.512,8.814-3.579
		c3.41,0.931,5.773,4.027,5.773,7.56v58.411C147.152,340.059,143.644,343.568,139.315,343.568z"/>
	<path style="fill:#FFFFFF;" d="M163.657,343.568c-4.329,0-7.837-3.508-7.837-7.837V277.32c0-4.329,3.508-7.837,7.837-7.837
		c4.329,0,7.837,3.508,7.837,7.837v58.411C171.494,340.059,167.985,343.568,163.657,343.568z"/>
	<path style="fill:#FFFFFF;" d="M212.11,343.568h-24.73c-4.329,0-7.837-3.508-7.837-7.837V277.32c0-4.329,3.508-7.837,7.837-7.837
		c4.329,0,7.837,3.508,7.837,7.837v50.574h16.893c4.329,0,7.837,3.508,7.837,7.837C219.947,340.06,216.439,343.568,212.11,343.568z"
		/>
	<path style="fill:#FFFFFF;" d="M273.422,331.551l-18.678-29.619l15.146-19.86c2.625-3.442,1.962-8.359-1.48-10.984
		s-8.36-1.962-10.984,1.48l-16.929,22.2V277.32c0-4.329-3.508-7.837-7.837-7.837c-4.329,0-7.837,3.508-7.837,7.837v58.411
		c0,4.329,3.508,7.837,7.837,7.837c4.329,0,7.837-3.508,7.837-7.837v-15.117l4.105-5.383l15.562,24.679
		c1.49,2.364,7.065,5.05,10.808,2.449C274.527,339.89,275.731,335.212,273.422,331.551z"/>
</g>
<g>
</g>
<g>
</g>
<g>
</g>
<g>
</g>
<g>
</g>
<g>
</g>
<g>
</g>
<g>
</g>
<g>
</g>
<g>
</g>
<g>
</g>
<g>
</g>
<g>
</g>
<g>
</g>
<g>
</g>
</svg>
