<?xml version="1.0" encoding="iso-8859-1"?>
<!-- Generator: Adobe Illustrator 19.0.0, SVG Export Plug-In . SVG Version: 6.00 Build 0)  -->
<svg version="1.1" id="Layer_1" xmlns="http://www.w3.org/2000/svg" xmlns:xlink="http://www.w3.org/1999/xlink" x="0px" y="0px"
	 viewBox="0 0 511.999 511.999" style="enable-background:new 0 0 511.999 511.999;" xml:space="preserve">
<path style="fill:#B27214;" d="M283.603,483.809l-20.701-20.701c-0.013-0.013-0.027-0.023-0.039-0.035
	c-0.216-0.213-0.441-0.418-0.677-0.612c-0.111-0.09-0.226-0.169-0.34-0.254c-0.142-0.107-0.281-0.216-0.429-0.315
	c-0.134-0.09-0.273-0.167-0.41-0.25c-0.135-0.082-0.269-0.167-0.41-0.242c-0.139-0.074-0.282-0.137-0.424-0.204
	c-0.147-0.069-0.291-0.143-0.442-0.206c-0.137-0.057-0.277-0.102-0.416-0.152c-0.161-0.059-0.32-0.12-0.485-0.169
	c-0.138-0.042-0.278-0.072-0.416-0.107c-0.169-0.043-0.337-0.09-0.509-0.124c-0.157-0.031-0.316-0.049-0.475-0.073
	c-0.156-0.023-0.311-0.052-0.47-0.068c-0.281-0.027-0.562-0.039-0.843-0.043c-0.039,0-0.077-0.007-0.116-0.007
	c-0.039,0-0.077,0.005-0.116,0.007c-0.281,0.004-0.563,0.016-0.843,0.043c-0.159,0.016-0.314,0.044-0.47,0.068
	c-0.159,0.023-0.318,0.042-0.475,0.073c-0.173,0.034-0.34,0.081-0.509,0.124c-0.139,0.035-0.28,0.065-0.416,0.107
	c-0.165,0.049-0.324,0.112-0.485,0.169c-0.139,0.051-0.28,0.096-0.418,0.152c-0.15,0.062-0.294,0.135-0.441,0.204
	c-0.142,0.068-0.286,0.13-0.425,0.204c-0.141,0.076-0.273,0.16-0.41,0.242c-0.137,0.082-0.276,0.16-0.41,0.25
	c-0.148,0.099-0.288,0.21-0.429,0.315c-0.113,0.085-0.229,0.163-0.34,0.254c-0.236,0.193-0.461,0.397-0.677,0.612
	c-0.013,0.013-0.027,0.023-0.039,0.035l-20.701,20.701c-3.811,3.811-3.811,9.991,0,13.801c3.813,3.811,9.991,3.811,13.802,0
	l4.04-4.042v8.673c0,5.39,4.368,9.759,9.759,9.759s9.759-4.369,9.759-9.759v-8.673l4.04,4.042c1.906,1.905,4.405,2.859,6.902,2.859
	c2.497,0,4.995-0.952,6.902-2.859C287.413,493.799,287.413,487.619,283.603,483.809z"/>
<path style="fill:#F7B239;" d="M300.395,68.238l-7.313-68.237h-74.165l-7.313,68.237c-4.243,39.594-29.297,73.879-65.681,90.063
	C79.336,187.919,34.481,243.578,34.481,307.367c0,94.855,99.178,171.75,221.519,171.75s221.519-76.895,221.519-171.75
	c0-63.789-44.855-119.448-111.443-149.066C329.692,142.116,304.638,107.832,300.395,68.238z"/>
<path style="fill:#E09B2D;" d="M255.998,479.117c-122.339,0-221.517-76.901-221.517-171.746
	c0-63.798,44.853-119.451,111.435-149.066c36.382-16.187,61.443-50.474,65.685-90.07L218.914,0h20.065l-3.344,68.235
	c-1.952,39.596-13.441,73.882-30.136,90.07c-30.539,29.615-51.124,85.268-51.124,149.066
	C154.374,402.216,199.877,479.117,255.998,479.117z"/>
<g>
	<path style="fill:#B27214;" d="M137.712,414.412c-2.186,0-4.32-1.101-5.55-3.099c-18.685-30.399-28.561-66.345-28.561-103.951
		c0-47.328,15.677-91.89,44.143-125.479c2.323-2.739,6.427-3.081,9.17-0.757c2.74,2.324,3.08,6.428,0.757,9.17
		c-26.477,31.241-41.058,72.816-41.058,117.066c0,35.2,9.21,68.79,26.636,97.138c1.882,3.062,0.925,7.068-2.137,8.95
		C140.049,414.101,138.873,414.412,137.712,414.412z"/>
	<path style="fill:#B27214;" d="M374.283,414.412c-1.162,0-2.338-0.311-3.4-0.964c-3.062-1.882-4.018-5.888-2.137-8.95
		c17.426-28.348,26.636-61.937,26.636-97.138c0-44.25-14.581-85.825-41.058-117.066c-2.323-2.742-1.983-6.847,0.757-9.17
		c2.742-2.324,6.847-1.983,9.17,0.757c28.466,33.588,44.143,78.152,44.143,125.479c0,37.606-9.876,73.552-28.561,103.951
		C378.604,413.31,376.469,414.412,374.283,414.412z"/>
	<path style="fill:#B27214;" d="M293.643,435.883c-0.645,0-1.303-0.098-1.952-0.301c-3.429-1.077-5.334-4.73-4.256-8.159
		c10.026-31.895,15.548-74.534,15.548-120.064c0-55.582-8.442-107.467-22.584-138.789c-1.479-3.275-0.023-7.129,3.252-8.607
		c3.279-1.478,7.128-0.022,8.606,3.253c14.865,32.922,23.738,86.807,23.738,144.144c0,46.816-5.734,90.841-16.148,123.966
		C298.974,434.105,296.41,435.883,293.643,435.883z"/>
	<path style="fill:#B27214;" d="M218.366,435.883c-2.766,0-5.332-1.777-6.205-4.557c-10.415-33.122-16.149-77.149-16.149-123.966
		c0-57.366,8.874-111.253,23.738-144.146c1.481-3.275,5.335-4.73,8.607-3.249c3.275,1.479,4.73,5.334,3.25,8.607
		c-14.142,31.293-22.584,83.176-22.584,138.788c0,45.529,5.522,88.168,15.549,120.064c1.077,3.427-0.828,7.08-4.255,8.159
		C219.67,435.786,219.011,435.883,218.366,435.883z"/>
</g>
<g>
</g>
<g>
</g>
<g>
</g>
<g>
</g>
<g>
</g>
<g>
</g>
<g>
</g>
<g>
</g>
<g>
</g>
<g>
</g>
<g>
</g>
<g>
</g>
<g>
</g>
<g>
</g>
<g>
</g>
</svg>
