<?xml version="1.0" encoding="iso-8859-1"?>
<!-- Generator: Adobe Illustrator 18.0.0, SVG Export Plug-In . SVG Version: 6.00 Build 0)  -->
<!DOCTYPE svg PUBLIC "-//W3C//DTD SVG 1.1//EN" "http://www.w3.org/Graphics/SVG/1.1/DTD/svg11.dtd">
<svg version="1.1" id="Capa_1" xmlns="http://www.w3.org/2000/svg" xmlns:xlink="http://www.w3.org/1999/xlink" x="0px" y="0px"
	 viewBox="0 0 57.06 57.06" style="enable-background:new 0 0 57.06 57.06;" xml:space="preserve">
<g>
	<path style="fill:#D6A550;" d="M28.758,19.06c16.058,0,15.944,8.507,15.944,19s-7.139,19-15.944,19h-0.456
		c-8.806,0-15.944-8.507-15.944-19s-0.114-19,15.944-19"/>
	<g>
		<path style="fill:#88C057;" d="M32.51,13.389c0.515-0.644,1.095-1.246,1.728-1.77c0.791-4.56,6.234-8.278,10.119-9.28
			c0,0-3.318-2.76-7.433-2.284c-4.264,0.493-6.688,2.584-8.055,5.056C31.75,7.361,32.429,10.904,32.51,13.389z"/>
	</g>
	<path style="fill:#659C35;" d="M23.255,19.411c1.476-0.228,3.145-0.351,5.048-0.351h0.056c0,0,0.167-5.042-5-6
		c-5.167-0.958-6,2-6,2C21.825,16.131,22.963,18.321,23.255,19.411z"/>
	<path style="fill:#659C35;" d="M34.612,19.553c0.819-1.552,4.68-5.279,9.746-6.493c0,0-1.833-3.958-7-3
		c-5.167,0.958-7.999,9-7.999,9s0.028,0.005,0.069,0.011C31.399,19.102,33.117,19.267,34.612,19.553z"/>
	<path style="fill:#A4E869;" d="M25.988,14.156c2.26,1.652,2.367,4.399,2.37,4.838c0.335,0.016,0.679,0.014,1.025,0
		c0.145-0.395,1.021-2.682,2.565-4.859c0.059-0.115,0.119-0.204,0.181-0.242c0.074-0.101,0.152-0.201,0.228-0.301
		c0.052-0.067,0.1-0.136,0.154-0.203c-0.119-3.626-1.506-9.507-9.153-10.329c-3.875-0.417-7,2-7,2
		C20.309,6.007,25.983,9.727,25.988,14.156L25.988,14.156z"/>
	<g>
		<polygon style="fill:#F4C44E;" points="21.358,44.646 17.651,48.353 19.065,49.767 21.358,47.474 23.651,49.767 25.065,48.353 		
			"/>
		<polygon style="fill:#F4C44E;" points="24.651,53.353 26.065,54.767 28.358,52.474 30.651,54.767 32.065,53.353 28.358,49.646 		
			"/>
		<polygon style="fill:#F4C44E;" points="31.651,48.353 33.065,49.767 35.358,47.474 37.651,49.767 39.065,48.353 35.358,44.646 		
			"/>
		<polygon style="fill:#F4C44E;" points="19.065,41.767 21.358,39.474 23.651,41.767 25.065,40.353 21.358,36.646 17.651,40.353 		
			"/>
		<polygon style="fill:#F4C44E;" points="28.358,43.474 30.651,45.767 32.065,44.353 28.358,40.646 24.651,44.353 26.065,45.767 		
			"/>
		<polygon style="fill:#F4C44E;" points="14.498,40.646 12.791,42.353 14.205,43.767 14.498,43.474 16.791,45.767 18.205,44.353 		
			"/>
		<polygon style="fill:#F4C44E;" points="35.358,39.474 37.651,41.767 39.065,40.353 35.358,36.646 31.651,40.353 33.065,41.767 		
			"/>
		<polygon style="fill:#F4C44E;" points="17.651,32.353 19.065,33.767 21.358,31.474 23.651,33.767 25.065,32.353 21.358,28.646 		
			"/>
		<polygon style="fill:#F4C44E;" points="28.358,35.474 30.651,37.767 32.065,36.353 28.358,32.646 24.651,36.353 26.065,37.767 		
			"/>
		<polygon style="fill:#F4C44E;" points="35.358,28.646 31.651,32.353 33.065,33.767 35.358,31.474 37.651,33.767 39.065,32.353 		
			"/>
		<polygon style="fill:#F4C44E;" points="21.358,23.474 23.651,25.767 25.065,24.353 21.358,20.646 17.651,24.353 19.065,25.767 		
			"/>
		<polygon style="fill:#F4C44E;" points="26.065,29.767 28.358,27.474 30.651,29.767 32.065,28.353 28.358,24.646 24.651,28.353 		
			"/>
		<polygon style="fill:#F4C44E;" points="35.358,23.474 37.651,25.767 39.065,24.353 35.358,20.646 31.651,24.353 33.065,25.767 		
			"/>
		<path style="fill:#F4C44E;" d="M43.212,25.538l-0.699-1.048l-3.862,3.863l1.414,1.414l2.138-2.137l1.323,1.985l0.732-0.488
			C44.038,27.833,43.705,26.631,43.212,25.538z"/>
		<path style="fill:#F4C44E;" d="M42.16,40.843l-3.51,3.51l1.414,1.414l2.49-2.49l1.355,0.678c0.18-0.656,0.336-1.323,0.456-2.008
			L42.16,40.843z"/>
		<path style="fill:#F4C44E;" d="M14.23,24.774c-0.383,0.693-0.688,1.438-0.93,2.228l0.765,0.765l0.293-0.293l2.293,2.293
			l1.414-1.414l-3.707-3.707L14.23,24.774z"/>
		<path style="fill:#F4C44E;" d="M44.689,34.977l-2.331-2.331l-3.707,3.707l1.414,1.414l2.293-2.293l1.293,1.293l1.046-1.046
			C44.695,35.472,44.692,35.223,44.689,34.977z"/>
		<path style="fill:#F4C44E;" d="M12.378,34.626c-0.008,0.474-0.014,0.952-0.017,1.437l0.704,0.704l1.293-1.293l2.293,2.293
			l1.414-1.414l-3.707-3.707L12.378,34.626z"/>
	</g>
</g>
<g>
</g>
<g>
</g>
<g>
</g>
<g>
</g>
<g>
</g>
<g>
</g>
<g>
</g>
<g>
</g>
<g>
</g>
<g>
</g>
<g>
</g>
<g>
</g>
<g>
</g>
<g>
</g>
<g>
</g>
</svg>
