<?xml version="1.0" encoding="iso-8859-1"?>
<!-- Generator: Adobe Illustrator 19.0.0, SVG Export Plug-In . SVG Version: 6.00 Build 0)  -->
<svg version="1.1" id="Layer_1" xmlns="http://www.w3.org/2000/svg" xmlns:xlink="http://www.w3.org/1999/xlink" x="0px" y="0px"
	 viewBox="0 0 503.25 503.25" style="enable-background:new 0 0 503.25 503.25;" xml:space="preserve">
<path style="fill:#FFD15C;" d="M72.098,490.328c0,0-82.547-15.673-68.963-133.747c0,0-1.045-26.122,90.906-130.612
	c0,0,87.771-154.645,150.465-189.127c0,0,62.694-44.931,128.522-32.392c95.086,17.763,122.253,122.253,122.253,122.253
	s38.661,107.624-54.335,222.563c-91.951,114.939-205.845,141.061-205.845,141.061S148.376,514.36,72.098,490.328z"/>
<g>
	<path style="fill:#F8B64C;" d="M242.416,122.524c-10.449,0-20.898-7.314-24.033-17.763c-1.045-3.135,1.045-5.224,3.135-6.269
		c3.135-1.045,5.224,1.045,6.269,3.135c2.09,6.269,7.314,10.449,13.584,10.449c6.269,0,11.494-4.18,13.584-10.449
		c1.045-3.135,4.18-4.18,6.269-3.135c3.135,1.045,4.18,4.18,3.135,6.269C262.269,115.209,252.865,122.524,242.416,122.524z"/>
	<path style="fill:#F8B64C;" d="M419.004,118.344c-10.449,0-20.898-7.314-24.033-17.763c-1.045-3.135,1.045-5.224,3.135-6.269
		c3.135-1.045,5.224,1.045,6.269,3.135c2.09,6.269,7.314,10.449,13.584,10.449s11.494-4.18,13.584-10.449
		c1.045-3.135,4.18-4.18,6.269-3.135c3.135,1.045,4.18,4.18,3.135,6.269C438.857,111.03,429.453,118.344,419.004,118.344z"/>
	<path style="fill:#F8B64C;" d="M385.567,261.495c-10.449,0-20.898-7.314-24.033-17.763c-1.045-3.135,1.045-5.224,3.135-6.269
		c3.135-1.045,5.225,1.045,6.269,3.135c2.09,6.269,7.314,10.449,13.584,10.449s11.494-4.18,13.584-10.449
		c1.045-3.135,4.18-4.18,6.269-3.135c3.135,1.045,4.18,4.18,3.135,6.269C406.465,254.181,396.016,261.495,385.567,261.495z"/>
	<path style="fill:#F8B64C;" d="M310.335,215.519c-10.449,0-20.898-7.314-24.033-17.763c-1.045-3.135,1.045-5.224,3.135-6.269
		c3.135-1.045,5.224,1.045,6.269,3.135c2.09,6.269,7.314,10.449,13.584,10.449c6.269,0,11.494-4.18,13.584-10.449
		c1.045-3.135,4.18-4.18,6.269-3.135c3.135,1.045,4.18,4.18,3.135,6.269C331.233,208.205,321.829,215.519,310.335,215.519z"/>
	<path style="fill:#F8B64C;" d="M310.335,377.479c-10.449,0-20.898-7.314-24.033-17.763c-1.045-3.135,1.045-5.224,3.135-6.269
		c3.135-1.045,5.224,1.045,6.269,3.135c2.09,6.269,7.314,10.449,13.584,10.449c6.269,0,11.494-4.18,13.584-10.449
		c1.045-3.135,4.18-4.18,6.269-3.135c3.135,1.045,4.18,4.18,3.135,6.269C331.233,370.164,321.829,377.479,310.335,377.479z"/>
	<path style="fill:#F8B64C;" d="M169.273,299.111c-10.449,0-20.898-7.314-24.033-17.763c-1.045-3.135,1.045-5.224,3.135-6.269
		c3.135-1.045,5.225,1.045,6.269,3.135c2.09,6.269,7.314,10.449,13.584,10.449c6.269,0,11.494-4.18,13.584-10.449
		c1.045-3.135,4.18-4.18,6.269-3.135c3.135,1.045,4.18,4.18,3.135,6.269C189.127,291.797,179.722,299.111,169.273,299.111z"/>
	<path style="fill:#F8B64C;" d="M86.727,422.409c-10.449,0-20.898-7.314-24.033-17.763c-1.045-3.135,1.045-5.224,3.135-6.269
		c3.135-1.045,5.224,1.045,6.269,3.135c2.09,6.269,7.314,10.449,13.584,10.449s11.494-4.18,13.584-10.449
		c1.045-3.135,4.18-4.18,6.269-3.135c3.135,1.045,4.18,4.18,3.135,6.269C106.58,415.095,97.176,422.409,86.727,422.409z"/>
</g>
<path style="fill:#FCC956;" d="M494.237,125.658c0,0-1.045-3.135-3.135-9.404c3.135,41.796-5.224,109.714-61.649,179.722
	c-91.951,114.939-205.845,141.061-205.845,141.061s-86.727,24.033-163.004,0c0,0-40.751-7.314-60.604-53.29
	c2.09,91.951,71.053,105.535,71.053,105.535c76.278,24.033,163.004,0,163.004,0s113.894-26.122,205.845-141.061
	C532.898,233.283,494.237,125.658,494.237,125.658z"/>
<g>
</g>
<g>
</g>
<g>
</g>
<g>
</g>
<g>
</g>
<g>
</g>
<g>
</g>
<g>
</g>
<g>
</g>
<g>
</g>
<g>
</g>
<g>
</g>
<g>
</g>
<g>
</g>
<g>
</g>
</svg>
