<?xml version="1.0" encoding="iso-8859-1"?>
<!-- Generator: Adobe Illustrator 19.0.0, SVG Export Plug-In . SVG Version: 6.00 Build 0)  -->
<svg version="1.1" id="Capa_1" xmlns="http://www.w3.org/2000/svg" xmlns:xlink="http://www.w3.org/1999/xlink" x="0px" y="0px"
	 viewBox="0 0 512 512" style="enable-background:new 0 0 512 512;" xml:space="preserve">
<path style="fill:#7FAB0D;" d="M256,0l-60,256l60,256c141.385,0,256-114.615,256-256S397.385,0,256,0z"/>
<path style="fill:#FFFFFF;" d="M256,30l-60,226l60,226c124.816,0,226-101.184,226-226S380.816,30,256,30z"/>
<path style="fill:#D35B38;" d="M256,60l-60,196l60,196c108.075,0,196-87.925,196-196S364.075,60,256,60z"/>
<g>
	<rect x="362" y="241" style="fill:#4D3D36;" width="30" height="30"/>
	
		<rect x="326.554" y="326.56" transform="matrix(-0.7071 0.7071 -0.7071 -0.7071 824.5887 341.5641)" style="fill:#4D3D36;" width="30" height="30"/>
	
		<rect x="326.561" y="155.445" transform="matrix(0.7071 0.7071 -0.7071 0.7071 220.5636 -191.598)" style="fill:#4D3D36;" width="30" height="30"/>
</g>
<path style="fill:#B8D75D;" d="M0,256c0,141.385,114.615,256,256,256l-30-256L256,0C114.615,0,0,114.615,0,256z"/>
<path style="fill:#9BC135;" d="M174.113,69.227c-17.77,24.667-51.777,49.6-61.084,85.891c-7.765,30.281,9.261,65.708,9.261,100.882
	c0,35.175-17.027,70.603-9.261,100.884c9.307,36.291,43.314,61.221,61.083,85.888C198.967,477.275,221.473,512,256,512V0
	C221.474,0,198.968,34.725,174.113,69.227z"/>
<g>
</g>
<g>
</g>
<g>
</g>
<g>
</g>
<g>
</g>
<g>
</g>
<g>
</g>
<g>
</g>
<g>
</g>
<g>
</g>
<g>
</g>
<g>
</g>
<g>
</g>
<g>
</g>
<g>
</g>
</svg>
