<?xml version="1.0" encoding="iso-8859-1"?>
<!-- Generator: Adobe Illustrator 19.0.0, SVG Export Plug-In . SVG Version: 6.00 Build 0)  -->
<svg version="1.1" id="Capa_1" xmlns="http://www.w3.org/2000/svg" xmlns:xlink="http://www.w3.org/1999/xlink" x="0px" y="0px"
	 viewBox="0 0 512 512" style="enable-background:new 0 0 512 512;" xml:space="preserve">
<circle style="fill:#B4DC90;" cx="256" cy="256" r="256"/>
<path style="fill:#7ECB75;" d="M256,0c-3.932,0-7.84,0.103-11.729,0.278C380.21,6.41,488.542,118.547,488.542,256
	S380.21,505.59,244.271,511.722C248.16,511.897,252.068,512,256,512c141.384,0,256-114.615,256-256S397.385,0,256,0z"/>
<path style="fill:#E6585F;" d="M256,49.988c-0.342,0-0.68,0.009-1.02,0.016v411.992c0.34,0.007,0.678,0.016,1.02,0.016
	c113.777,0,206.012-92.234,206.012-206.012C462.012,142.223,369.777,49.988,256,49.988z"/>
<path style="fill:#EF677E;" d="M254.98,52.129V461.23c102.236-12.106,181.534-99.059,181.534-204.551
	C436.514,151.188,357.217,64.235,254.98,52.129z"/>
<path style="fill:#5EBE52;" d="M254.98,0.013C114.066,0.564,0,114.956,0,256s114.066,255.436,254.98,255.987V0.013z"/>
<g>
	<path style="fill:#182222;" d="M318.672,182.172c0,5.591-7.889,10.125-17.621,10.125s-17.621-10.125-17.621-10.125
		s7.889-10.125,17.621-10.125C310.783,172.047,318.672,176.581,318.672,182.172z"/>
	<path style="fill:#182222;" d="M318.672,247.598c0,5.591-7.889,10.125-17.621,10.125s-17.621-10.125-17.621-10.125
		s7.889-10.124,17.621-10.124C310.783,237.473,318.672,242.006,318.672,247.598z"/>
	<path style="fill:#182222;" d="M318.672,313.023c0,5.591-7.889,10.125-17.621,10.125s-17.621-10.125-17.621-10.125
		s7.889-10.125,17.621-10.125C310.783,302.899,318.672,307.432,318.672,313.023z"/>
	<path style="fill:#182222;" d="M377.607,214.885c0,5.591-7.889,10.124-17.621,10.124c-9.732,0-17.621-10.124-17.621-10.124
		s7.889-10.125,17.621-10.125C369.718,204.76,377.607,209.294,377.607,214.885z"/>
	<path style="fill:#182222;" d="M377.607,280.311c0,5.591-7.889,10.125-17.621,10.125c-9.732,0-17.621-10.125-17.621-10.125
		s7.889-10.125,17.621-10.125C369.718,270.186,377.607,274.719,377.607,280.311z"/>
</g>
<path style="fill:#00935C;" d="M235.643,461.203l-1.198-2.13c-2.776-4.93-6.274-9.65-9.975-14.648
	c-6.729-9.084-13.688-18.48-17.02-30.083c-2.115-7.367-1.918-16.339-1.709-25.838c0.195-8.888,0.398-18.076-1.131-27.529
	c-1.328-8.215-4.313-16.252-7.2-24.025c-3.347-9.014-6.809-18.336-7.496-27.598c-0.596-8.036,1.179-16.752,3.059-25.98
	c1.795-8.811,3.65-17.922,3.65-27.399c0-9.476-1.855-18.587-3.65-27.398c-1.88-9.228-3.655-17.943-3.059-25.979
	c0.686-9.262,4.148-18.584,7.496-27.599c2.886-7.772,5.871-15.808,7.2-24.022c1.529-9.454,1.326-18.643,1.131-27.531
	c-0.209-9.5-0.406-18.472,1.709-25.841C210.782,86,217.741,76.605,224.471,67.52c3.701-4.997,7.198-9.717,9.974-14.647l1.197-2.127
	c6.485-11.531,12.722-22.604,18.969-28.454v-3.522V3.314v-0.95c-16.625,2.178-31.397,10.2-45.745,18.019
	c-3.796,2.068-7.721,4.207-11.532,6.144c-4.371,2.221-8.915,4.297-13.725,6.494c-16.274,7.434-33.104,15.12-46.004,29.638
	c-10.51,11.828-16.389,27.104-22.075,41.879c-2.622,6.814-5.333,13.86-8.45,20.425c-2.963,6.241-6.619,12.42-10.49,18.96
	c-7.858,13.278-15.984,27.01-19.428,43.205c-3.072,14.448-1.595,29.396-0.293,42.584c0.414,4.188,3.942,7.316,8.065,7.316
	c0.266,0,0.536-0.013,0.807-0.04c4.459-0.441,7.717-4.412,7.276-8.871c-1.187-12.013-2.532-25.629,0.016-37.613
	c2.891-13.595,10.329-26.163,17.521-38.316c3.886-6.566,7.904-13.357,11.184-20.266c3.381-7.121,6.204-14.459,8.936-21.556
	c5.403-14.04,10.506-27.302,19.06-36.928c10.627-11.96,25.872-18.923,40.616-25.657c4.75-2.169,9.661-4.413,14.334-6.788
	c4.02-2.043,8.049-4.238,11.946-6.361c4.686-2.554,9.294-5.059,13.882-7.322c-3.051,4.884-6.011,10.145-9.014,15.484l-1.191,2.117
	c-2.281,4.048-5.483,8.374-8.875,12.952c-7.235,9.767-15.435,20.838-19.577,35.264c-2.797,9.737-2.562,20.381-2.336,30.674
	c0.18,8.158,0.365,16.594-0.927,24.584c-1.075,6.646-3.657,13.601-6.392,20.963c-3.742,10.075-7.611,20.493-8.467,32.049
	c-0.762,10.274,1.324,20.514,3.341,30.416c1.709,8.392,3.324,16.32,3.324,24.16c0,7.84-1.615,15.768-3.324,24.161
	c-2.017,9.903-4.103,20.143-3.341,30.418c0.857,11.556,4.725,21.973,8.466,32.047c2.735,7.364,5.318,14.32,6.393,20.965
	c1.292,7.989,1.107,16.425,0.927,24.583c-0.226,10.292-0.461,20.935,2.336,30.672c4.142,14.425,12.342,25.496,19.577,35.264
	c3.392,4.579,6.596,8.904,8.876,12.953l1.192,2.12c3.002,5.338,5.962,10.599,9.013,15.483c-4.589-2.264-9.198-4.771-13.884-7.325
	c-3.896-2.123-7.926-4.319-11.944-6.361c-4.673-2.375-9.585-4.619-14.336-6.789c-14.743-6.735-29.989-13.698-40.614-25.656
	c-8.554-9.627-13.658-22.888-19.06-36.929c-2.73-7.097-5.554-14.435-8.936-21.556c-3.28-6.91-7.299-13.7-11.184-20.266
	c-7.192-12.153-14.629-24.72-17.52-38.312c-2.501-11.761-1.34-22.108,0.004-34.09c0.872-7.77,1.774-15.806,1.774-24.999
	c0-4.481-3.632-8.112-8.112-8.112s-8.112,3.632-8.112,8.112c0,8.286-0.851,15.863-1.673,23.19
	c-1.439,12.827-2.799,24.942,0.249,39.274c3.444,16.194,11.57,29.923,19.427,43.202c3.871,6.541,7.528,12.719,10.49,18.96
	c3.117,6.565,5.828,13.611,8.45,20.425c5.685,14.775,11.564,30.052,22.074,41.88c12.9,14.517,29.729,22.204,46.003,29.637
	c4.811,2.198,9.355,4.273,13.727,6.495c3.81,1.937,7.735,4.076,11.53,6.144c14.455,7.877,29.34,15.969,46.116,18.074v-0.864v-15.527
	v-3.239C248.611,484.254,242.255,472.96,235.643,461.203z"/>
<g>
</g>
<g>
</g>
<g>
</g>
<g>
</g>
<g>
</g>
<g>
</g>
<g>
</g>
<g>
</g>
<g>
</g>
<g>
</g>
<g>
</g>
<g>
</g>
<g>
</g>
<g>
</g>
<g>
</g>
</svg>
