<?xml version="1.0" encoding="iso-8859-1"?>
<!-- Generator: Adobe Illustrator 19.0.0, SVG Export Plug-In . SVG Version: 6.00 Build 0)  -->
<svg version="1.1" id="Capa_1" xmlns="http://www.w3.org/2000/svg" xmlns:xlink="http://www.w3.org/1999/xlink" x="0px" y="0px"
	 viewBox="0 0 512 512" style="enable-background:new 0 0 512 512;" xml:space="preserve">
<g>
	<polygon style="fill:#DAE5EF;" points="315.632,452.32 301.232,370.48 287.568,371.616 301.952,453.456 	"/>
	<polygon style="fill:#DAE5EF;" points="196.368,452.32 210.768,370.48 224.432,371.616 210.048,453.456 	"/>
</g>
<path style="fill:#E24B4B;" d="M302.864,379.616c59.232-93.616,124-98.096,124-208.752C426.864,76.528,350.336,0,256,0
	C161.6,0,85.136,76.528,85.136,170.864c0,110.656,64.768,115.136,124,208.752H302.864z"/>
<path style="fill:#FFD93B;" d="M289.712,379.616c42.624-93.616,89.2-98.096,89.2-208.752C378.928,76.528,323.872,0,256,0
	c-67.92,0-122.928,76.528-122.928,170.864c0,110.656,46.592,115.136,89.2,208.752H289.712z"/>
<path style="fill:#E24B4B;" d="M275.936,379.616c25.2-93.616,52.736-98.096,52.736-208.752C328.672,76.528,296.128,0,256,0
	c-40.144,0-72.672,76.528-72.672,170.864c0,110.656,27.536,115.136,52.736,208.752H275.936z"/>
<path style="fill:#FFD93B;" d="M263.44,379.616c9.392-93.616,19.664-98.096,19.664-208.752C283.104,76.528,270.96,0,256,0
	c-14.976,0-27.104,76.528-27.104,170.864c0,110.656,10.272,115.136,19.664,208.752H263.44z"/>
<path style="fill:#505356;" d="M187.344,349.008c7.264,9.12,14.56,19.2,21.792,30.608h93.728
	c7.216-11.408,14.528-21.488,21.792-30.608H187.344z"/>
<path style="fill:#A4856D;" d="M296.704,512h-81.408c-17.68,0-32-14.32-32-32v-54.688h145.408V480
	C328.704,497.68,314.384,512,296.704,512z"/>
<path style="fill:#997960;" d="M329.248,414.832H182.736c-6.944,0-12.576,5.632-12.576,12.576v0.96
	c0,6.944,5.632,12.576,12.576,12.576h146.512c6.944,0,12.576-5.632,12.576-12.576v-0.96
	C341.824,420.464,336.192,414.832,329.248,414.832z"/>
<g>
</g>
<g>
</g>
<g>
</g>
<g>
</g>
<g>
</g>
<g>
</g>
<g>
</g>
<g>
</g>
<g>
</g>
<g>
</g>
<g>
</g>
<g>
</g>
<g>
</g>
<g>
</g>
<g>
</g>
</svg>
