<?xml version="1.0" encoding="iso-8859-1"?>
<!-- Generator: Adobe Illustrator 19.0.0, SVG Export Plug-In . SVG Version: 6.00 Build 0)  -->
<svg version="1.1" id="Layer_1" xmlns="http://www.w3.org/2000/svg" xmlns:xlink="http://www.w3.org/1999/xlink" x="0px" y="0px"
	 viewBox="0 0 512 512" style="enable-background:new 0 0 512 512;" xml:space="preserve">
<path style="fill:#4DB2F7;" d="M429.02,197.032c3.4-11.792,5.268-24.642,5.268-38.091c0-57.263-33.867-89.88-75.645-89.88
	c-8.794,0-17.232,1.464-25.082,4.28c1.595,8.05,2.448,16.741,2.448,26.054c0,44.458-19.315,82.71-47.059,99.924
	c11.486,37.2,38.366,63.301,69.692,63.301c24.734,0,46.696-16.27,60.498-41.429"/>
<path style="fill:#35A0DB;" d="M359.296,96.672c0-9.605-0.734-18.81-2.144-27.579c-8.256,0.157-16.186,1.593-23.59,4.248
	c1.595,8.05,2.448,16.741,2.448,26.054c0,44.458-19.315,82.71-47.059,99.924c2.683,8.686,6.212,16.755,10.433,24.04
	C334.727,201.159,359.296,152.724,359.296,96.672z"/>
<path style="fill:#FF3B3B;" d="M175.991,99.396c0-9.314,0.853-18.005,2.448-26.054c-7.851-2.817-16.288-4.28-25.082-4.28
	c-41.778,0-75.645,32.618-75.645,89.88c0,57.26,33.867,103.679,75.645,103.679c31.326,0,58.206-26.099,69.692-63.301
	C195.306,182.105,175.991,143.854,175.991,99.396z"/>
<g>
	<path style="fill:#DBD9DA;" d="M256.001,512c-4.485,0-8.119-3.634-8.119-8.12v-254.7c0-4.484,3.634-8.12,8.119-8.12
		c4.485,0,8.12,3.635,8.12,8.12v254.701C264.12,508.366,260.485,512,256.001,512z"/>
	<path style="fill:#DBD9DA;" d="M256.006,434.605c-2.399,0-4.773-1.058-6.377-3.086L144.01,297.837
		c-2.779-3.518-2.181-8.625,1.337-11.404c3.518-2.781,8.625-2.184,11.404,1.337l105.621,133.682
		c2.78,3.518,2.181,8.625-1.337,11.404C259.543,434.034,257.768,434.605,256.006,434.605z"/>
	<path style="fill:#DBD9DA;" d="M255.995,434.605c-1.762,0-3.538-0.571-5.029-1.748c-3.518-2.779-4.118-7.886-1.337-11.404
		l105.62-133.682c2.78-3.52,7.886-4.118,11.404-1.337c3.518,2.779,4.118,7.886,1.337,11.404l-105.62,133.682
		C260.768,433.548,258.394,434.605,255.995,434.605z"/>
</g>
<g>
	<path style="fill:#FF3B3B;" d="M207.566,488.115c-0.003,0-0.008,0-0.012,0l-1.985-0.003c-12.771-0.015-24.969-6.122-32.651-16.345
		c-0.066-0.082-0.131-0.167-0.193-0.253c-0.306-0.419-0.607-0.842-0.897-1.272c-0.17-0.253-0.329-0.489-0.483-0.731
		c-0.127-0.195-0.279-0.431-0.429-0.67c-0.306-0.497-0.575-0.948-0.835-1.406c-0.008-0.012-0.064-0.112-0.071-0.123
		c-6.279-11.185-6.933-24.861-1.749-36.58l0.801-1.813c0.068-0.151,0.137-0.297,0.212-0.443
		c7.059-13.669,20.987-22.161,36.353-22.161l50.385,0.068c2.744,0.003,5.3,1.393,6.795,3.693c1.497,2.301,1.73,5.202,0.619,7.71
		l-20.356,46.03c-6.223,14.075-19.645,23.381-35.026,24.287C207.883,488.11,207.725,488.115,207.566,488.115z M185.767,461.839
		c0.031,0.039,0.062,0.078,0.091,0.118c4.701,6.293,11.893,9.906,19.735,9.916l1.726,0.003c9.185-0.625,17.18-6.212,20.902-14.629
		l15.32-34.643l-37.879-0.051c-9.222,0-17.561,5.04-21.852,13.17l-0.697,1.575c-3.173,7.173-2.787,15.215,1.059,22.065
		c0.024,0.042,0.043,0.076,0.068,0.118c0.122,0.218,0.292,0.5,0.466,0.782l0.579,0.886
		C185.434,461.373,185.599,461.606,185.767,461.839z"/>
	<path style="fill:#FF3B3B;" d="M304.436,488.115c-0.159,0-0.319-0.004-0.477-0.014c-15.383-0.906-28.805-10.212-35.028-24.287
		l-20.356-46.03c-1.11-2.508-0.877-5.41,0.619-7.71c1.495-2.299,4.051-3.689,6.795-3.693l50.33-0.068
		c15.419,0,29.349,8.492,36.408,22.161c0.075,0.146,0.146,0.293,0.211,0.443l0.802,1.816c5.185,11.716,4.531,25.391-1.751,36.579
		c-0.024,0.039-0.047,0.081-0.07,0.122c-0.26,0.458-0.528,0.909-0.805,1.358c-0.171,0.275-0.328,0.517-0.488,0.764
		c-0.121,0.189-0.275,0.419-0.43,0.651c-0.324,0.475-0.624,0.9-0.931,1.321c-0.06,0.081-0.119,0.16-0.182,0.24
		c-7.682,10.221-19.881,16.33-32.656,16.345l-1.981,0.003C304.445,488.115,304.44,488.115,304.436,488.115z M268.462,422.603
		l15.32,34.643c3.722,8.416,11.715,14.005,20.903,14.629l1.722-0.003c7.842-0.01,15.036-3.623,19.736-9.916
		c0.031-0.041,0.063-0.082,0.094-0.123c0.17-0.235,0.338-0.472,0.5-0.711l0.271-0.41c0.124-0.189,0.217-0.333,0.306-0.477
		c0.154-0.248,0.319-0.524,0.477-0.807c0.016-0.026,0.031-0.054,0.047-0.08c3.839-6.846,4.221-14.881,1.052-22.046l-0.698-1.577
		c-4.291-8.13-12.63-13.17-21.818-13.17L268.462,422.603z"/>
</g>
<path style="fill:#F4A321;" d="M315.803,26.265C300.662,9.328,279.424,0,256.001,0c-23.422,0-44.662,9.328-59.803,26.265
	c-16.051,17.956-24.536,43.243-24.536,73.131c0,62.856,37.834,113.994,84.339,113.994s84.339-51.137,84.339-113.994
	C340.34,69.508,331.855,44.221,315.803,26.265z"/>
<path style="fill:#F9AC3D;" d="M315.803,26.265c-13.198-14.763-31.03-23.739-50.902-25.802
	c-6.846,23.764-10.526,48.872-10.526,74.84c0,47.046,12.052,91.272,33.22,129.778c30.896-16.935,52.744-57.923,52.744-105.686
	C340.34,69.508,331.855,44.221,315.803,26.265z"/>
<path style="fill:#E52323;" d="M95.034,158.941c0-53.241,29.282-85.16,66.974-89.383c-2.84-0.319-5.724-0.497-8.651-0.497
	c-41.778,0-75.645,32.618-75.645,89.88c0,57.26,33.867,103.679,75.645,103.679c2.938,0,5.837-0.23,8.687-0.677
	C124.333,256.069,95.034,212.198,95.034,158.941z"/>
<path style="fill:#F27B22;" d="M188.982,99.396c0-29.886,8.485-55.175,24.536-73.131C226.77,11.443,244.692,2.448,264.66,0.433
	c-2.848-0.287-5.738-0.432-8.661-0.432c-23.422,0-44.662,9.328-59.803,26.265c-16.051,17.956-24.536,43.243-24.536,73.131
	c0,62.856,37.834,113.994,84.339,113.994c2.924,0,5.812-0.204,8.661-0.598C222.209,206.912,188.982,158.3,188.982,99.396z"/>
<g>
	<path style="fill:#49516D;" d="M269.368,247.449h-26.737c-4.484,0-8.12-3.634-8.12-8.12c0-4.485,3.635-8.12,8.12-8.12h26.737
		c4.484,0,8.12,3.634,8.12,8.12C277.488,243.815,273.853,247.449,269.368,247.449z"/>
	<path style="fill:#49516D;" d="M374.988,300.923h-26.735c-4.484,0-8.12-3.634-8.12-8.12c0-4.485,3.635-8.12,8.12-8.12h26.735
		c4.484,0,8.12,3.634,8.12,8.12C383.108,297.288,379.472,300.923,374.988,300.923z"/>
	<path style="fill:#49516D;" d="M163.748,300.923h-26.735c-4.484,0-8.12-3.634-8.12-8.12c0-4.485,3.635-8.12,8.12-8.12h26.735
		c4.484,0,8.12,3.634,8.12,8.12C171.867,297.288,168.231,300.923,163.748,300.923z"/>
</g>
<g>
</g>
<g>
</g>
<g>
</g>
<g>
</g>
<g>
</g>
<g>
</g>
<g>
</g>
<g>
</g>
<g>
</g>
<g>
</g>
<g>
</g>
<g>
</g>
<g>
</g>
<g>
</g>
<g>
</g>
</svg>
