<?xml version="1.0" encoding="iso-8859-1"?>
<!-- Generator: Adobe Illustrator 18.0.0, SVG Export Plug-In . SVG Version: 6.00 Build 0)  -->
<!DOCTYPE svg PUBLIC "-//W3C//DTD SVG 1.1//EN" "http://www.w3.org/Graphics/SVG/1.1/DTD/svg11.dtd">
<svg version="1.1" id="Capa_1" xmlns="http://www.w3.org/2000/svg" xmlns:xlink="http://www.w3.org/1999/xlink" x="0px" y="0px"
	 viewBox="0 0 512 512" style="enable-background:new 0 0 512 512;" xml:space="preserve">
<g>
	<path style="fill:#AF6328;" d="M325.109,86.828l-56-80C266.113,2.547,261.223,0,256,0s-10.113,2.547-13.109,6.828l-56,80
		C185.012,89.516,184,92.719,184,96v400c0,8.836,7.164,16,16,16h112c8.836,0,16-7.164,16-16V96
		C328,92.719,326.988,89.516,325.109,86.828z"/>
	<path style="fill:#AF6328;" d="M149.109,86.828l-56-80C90.113,2.547,85.223,0,80,0S69.887,2.547,66.891,6.828l-56,80
		C9.012,89.516,8,92.719,8,96v400c0,8.836,7.164,16,16,16h112c8.836,0,16-7.164,16-16V96C152,92.719,150.988,89.516,149.109,86.828z
		"/>
	<g>
		<path style="fill:#A25425;" d="M232,360c-4.422,0-8-3.578-8-8V216c0-4.422,3.578-8,8-8c4.422,0,8,3.578,8,8v136
			C240,356.422,236.422,360,232,360z"/>
	</g>
	<g>
		<path style="fill:#A25425;" d="M280,328c-4.422,0-8-3.578-8-8v-56c0-4.422,3.578-8,8-8c4.422,0,8,3.578,8,8v56
			C288,324.422,284.422,328,280,328z"/>
	</g>
	<g>
		<path style="fill:#A25425;" d="M248,128c-4.422,0-8-3.578-8-8V64c0-4.422,3.578-8,8-8c4.422,0,8,3.578,8,8v56
			C256,124.422,252.422,128,248,128z"/>
	</g>
	<g>
		<path style="fill:#A25425;" d="M224,472c-4.422,0-8-3.578-8-8v-56c0-4.422,3.578-8,8-8c4.422,0,8,3.578,8,8v56
			C232,468.422,228.422,472,224,472z"/>
	</g>
	<path style="fill:#AF6328;" d="M501.109,86.828l-56-80C442.113,2.547,437.223,0,432,0s-10.113,2.547-13.109,6.828l-56,80
		C361.012,89.516,360,92.719,360,96v400c0,8.836,7.164,16,16,16h112c8.836,0,16-7.164,16-16V96
		C504,92.719,502.988,89.516,501.109,86.828z"/>
	<g>
		<path style="fill:#E2E4E6;" d="M448,400c0,8.844-7.164,16-16,16c-8.836,0-16-7.156-16-16c0-8.843,7.164-16,16-16
			C440.836,384,448,391.157,448,400z"/>
	</g>
	<path style="fill:#A25425;" d="M432,416c-7.447,0-13.651-5.107-15.435-12c-0.333,1.286-0.565,2.61-0.565,4c0,8.844,7.164,16,16,16
		s16-7.156,16-16c0-1.39-0.232-2.714-0.565-4C445.651,410.893,439.447,416,432,416z"/>
	<path style="fill:#A25425;" d="M432,192c-7.447,0-13.651-5.107-15.435-12c-0.333,1.286-0.565,2.61-0.565,4c0,8.844,7.164,16,16,16
		s16-7.156,16-16c0-1.39-0.232-2.714-0.565-4C445.651,186.893,439.447,192,432,192z"/>
	<g>
		<path style="fill:#E2E4E6;" d="M448,176c0,8.844-7.164,16-16,16c-8.836,0-16-7.156-16-16c0-8.843,7.164-16,16-16
			C440.836,160,448,167.157,448,176z"/>
	</g>
	<g>
		<path style="fill:#E2E4E6;" d="M272,400c0,8.844-7.164,16-16,16c-8.836,0-16-7.156-16-16c0-8.843,7.164-16,16-16
			C264.836,384,272,391.157,272,400z"/>
	</g>
	<path style="fill:#7D4B22;" d="M256,416c-7.447,0-13.651-5.107-15.435-12c-0.333,1.286-0.565,2.61-0.565,4c0,8.844,7.164,16,16,16
		s16-7.156,16-16c0-1.39-0.232-2.714-0.565-4C269.651,410.893,263.447,416,256,416z"/>
	<path style="fill:#7D4B22;" d="M256,192c-7.447,0-13.651-5.107-15.435-12c-0.333,1.286-0.565,2.61-0.565,4c0,8.844,7.164,16,16,16
		s16-7.156,16-16c0-1.39-0.232-2.714-0.565-4C269.651,186.893,263.447,192,256,192z"/>
	<g>
		<path style="fill:#E2E4E6;" d="M272,176c0,8.844-7.164,16-16,16c-8.836,0-16-7.156-16-16c0-8.843,7.164-16,16-16
			C264.836,160,272,167.157,272,176z"/>
	</g>
	<g>
		<path style="fill:#E2E4E6;" d="M96,400c0,8.844-7.164,16-16,16c-8.836,0-16-7.156-16-16c0-8.843,7.164-16,16-16
			C88.836,384,96,391.157,96,400z"/>
	</g>
	<path style="fill:#A25425;" d="M80,416c-7.447,0-13.651-5.107-15.435-12c-0.333,1.286-0.565,2.61-0.565,4c0,8.844,7.164,16,16,16
		s16-7.156,16-16c0-1.39-0.232-2.714-0.565-4C93.651,410.893,87.447,416,80,416z"/>
	<path style="fill:#A25425;" d="M80,192c-7.447,0-13.651-5.107-15.435-12c-0.333,1.286-0.565,2.61-0.565,4c0,8.844,7.164,16,16,16
		s16-7.156,16-16c0-1.39-0.232-2.714-0.565-4C93.651,186.893,87.447,192,80,192z"/>
	<g>
		<path style="fill:#E2E4E6;" d="M96,176c0,8.844-7.164,16-16,16c-8.836,0-16-7.156-16-16c0-8.843,7.164-16,16-16
			C88.836,160,96,167.157,96,176z"/>
	</g>
	<path style="fill:#A25425;" d="M488,112v376c0,4.418-3.582,8-8,8h-88c-8.837,0-16,7.163-16,16l0,0h112c8.837,0,16-7.163,16-16V96
		l0,0C495.163,96,488,103.163,488,112z"/>
	<path style="fill:#A25425;" d="M312,112v376c0,4.418-3.582,8-8,8h-88c-8.837,0-16,7.163-16,16l0,0h112c8.837,0,16-7.163,16-16V96
		l0,0C319.163,96,312,103.163,312,112z"/>
	<path style="fill:#A25425;" d="M136,112v376c0,4.418-3.582,8-8,8H40c-8.837,0-16,7.163-16,16l0,0h112c8.837,0,16-7.163,16-16V96
		l0,0C143.163,96,136,103.163,136,112z"/>
	<rect x="336" y="152" style="fill:#A25425;" width="24" height="56"/>
	<g>
		<path style="fill:#A25425;" d="M408,360c-4.422,0-8-3.578-8-8V216c0-4.422,3.578-8,8-8c4.422,0,8,3.578,8,8v136
			C416,356.422,412.422,360,408,360z"/>
	</g>
	<g>
		<path style="fill:#A25425;" d="M456,328c-4.422,0-8-3.578-8-8v-56c0-4.422,3.578-8,8-8c4.422,0,8,3.578,8,8v56
			C464,324.422,460.422,328,456,328z"/>
	</g>
	<g>
		<path style="fill:#A25425;" d="M424,128c-4.422,0-8-3.578-8-8V64c0-4.422,3.578-8,8-8c4.422,0,8,3.578,8,8v56
			C432,124.422,428.422,128,424,128z"/>
	</g>
	<g>
		<path style="fill:#A25425;" d="M400,472c-4.422,0-8-3.578-8-8v-56c0-4.422,3.578-8,8-8c4.422,0,8,3.578,8,8v56
			C408,468.422,404.422,472,400,472z"/>
	</g>
	<g>
		<path style="fill:#A25425;" d="M56,360c-4.422,0-8-3.578-8-8V216c0-4.422,3.578-8,8-8c4.422,0,8,3.578,8,8v136
			C64,356.422,60.422,360,56,360z"/>
	</g>
	<g>
		<path style="fill:#A25425;" d="M104,328c-4.422,0-8-3.578-8-8v-56c0-4.422,3.578-8,8-8c4.422,0,8,3.578,8,8v56
			C112,324.422,108.422,328,104,328z"/>
	</g>
	<g>
		<path style="fill:#A25425;" d="M72,128c-4.422,0-8-3.578-8-8V64c0-4.422,3.578-8,8-8c4.422,0,8,3.578,8,8v56
			C80,124.422,76.422,128,72,128z"/>
	</g>
	<g>
		<path style="fill:#A25425;" d="M48,472c-4.422,0-8-3.578-8-8v-56c0-4.422,3.578-8,8-8c4.422,0,8,3.578,8,8v56
			C56,468.422,52.422,472,48,472z"/>
	</g>
	<rect x="328" y="152" style="fill:#7F4122;" width="8" height="56"/>
	<rect x="160" y="152" style="fill:#A25425;" width="24" height="56"/>
	<rect x="152" y="152" style="fill:#7F4122;" width="8" height="56"/>
	<rect x="160" y="368" style="fill:#A25425;" width="24" height="56"/>
	<rect x="152" y="368" style="fill:#7F4122;" width="8" height="56"/>
	<rect x="336" y="368" style="fill:#A25425;" width="24" height="56"/>
	<rect x="328" y="368" style="fill:#7F4122;" width="8" height="56"/>
</g>
<g>
</g>
<g>
</g>
<g>
</g>
<g>
</g>
<g>
</g>
<g>
</g>
<g>
</g>
<g>
</g>
<g>
</g>
<g>
</g>
<g>
</g>
<g>
</g>
<g>
</g>
<g>
</g>
<g>
</g>
</svg>
