<?xml version="1.0" encoding="iso-8859-1"?>
<!-- Generator: Adobe Illustrator 19.0.0, SVG Export Plug-In . SVG Version: 6.00 Build 0)  -->
<svg version="1.1" id="Layer_1" xmlns="http://www.w3.org/2000/svg" xmlns:xlink="http://www.w3.org/1999/xlink" x="0px" y="0px"
	 viewBox="0 0 464 464" style="enable-background:new 0 0 464 464;" xml:space="preserve">
<g>
	<g>
		<g>
			<g>
				<path style="fill:#8C5F56;" d="M232,464L232,464c-4.418,0-8-3.582-8-8V327.995h16V456C240,460.418,236.418,464,232,464z"/>
			</g>
		</g>
		<g>
			<g>
				<rect x="224" y="327.995" style="fill:#734B46;" width="16" height="24.005"/>
			</g>
		</g>
	</g>
	<g>
		<g>
			<path style="fill:#E15050;" d="M232,0c-66.274,0-120,53.726-120,120c0,89.333,53.726,176,120,176s120-86.667,120-176
				C352,53.726,298.274,0,232,0z"/>
		</g>
	</g>
	<g>
		<g>
			<path style="fill:#D24146;" d="M248,304h-32l-5.515,22.06c-1.262,5.049,2.557,9.94,7.761,9.94h27.508
				c5.205,0,9.023-4.891,7.761-9.94L248,304z"/>
		</g>
	</g>
	<g>
		<g>
			<path style="fill:#D24146;" d="M176,120c0-55.175,37.286-101.532,88-115.552C253.798,1.627,243.1,0,232,0
				c-66.274,0-120,53.726-120,120c0,89.333,53.726,176,120,176c11.086,0,21.809-2.474,32-6.931C213.268,266.882,176,194.389,176,120
				z"/>
		</g>
	</g>
	<g>
		<g>
			<path style="fill:#E15050;" d="M203.609,272.008c-1.336,0-2.68-0.328-3.93-1.031c-7.352-4.156-14.531-9.711-21.328-16.516
				c-3.117-3.133-3.117-8.195,0.008-11.32c3.125-3.109,8.195-3.117,11.32,0.008c5.766,5.781,11.781,10.453,17.875,13.891
				c3.844,2.172,5.203,7.055,3.031,10.906C209.109,270.547,206.398,272.008,203.609,272.008z"/>
		</g>
	</g>
	<g>
		<g>
			<path style="fill:#E15050;" d="M164.688,232c-2.68,0-5.297-1.344-6.813-3.797c-12-19.406-20.891-42.453-25.719-66.641
				c-0.867-4.336,1.945-8.547,6.273-9.414c4.383-0.906,8.555,1.953,9.414,6.273c4.461,22.344,12.633,43.563,23.641,61.375
				c2.32,3.758,1.156,8.688-2.602,11.008C167.578,231.617,166.125,232,164.688,232z"/>
		</g>
	</g>
	<g>
		<g>
			<path style="fill:#E77373;" d="M327.359,144c-0.219,0-0.438-0.008-0.656-0.023c-4.398-0.359-7.68-4.219-7.328-8.625
				C319.789,130.266,320,125.102,320,120c0-21.664-7.984-42.508-22.477-58.68c-2.945-3.289-2.672-8.344,0.625-11.297
				c3.281-2.938,8.336-2.672,11.297,0.625C326.57,69.758,336,94.391,336,120c0,5.531-0.227,11.125-0.672,16.648
				C334.984,140.828,331.484,144,327.359,144z"/>
		</g>
	</g>
	<g>
		<g>
			<path style="fill:#ED9696;" d="M279.984,44.883c-1.367,0-2.75-0.352-4.016-1.086c-4.625-2.688-9.547-4.969-14.641-6.773
				c-4.164-1.477-6.336-6.055-4.859-10.219s6.039-6.336,10.219-4.859c6.016,2.141,11.844,4.836,17.328,8.023
				c3.813,2.219,5.117,7.117,2.891,10.938C285.422,43.461,282.742,44.883,279.984,44.883z"/>
		</g>
	</g>
	<path style="fill:#8C5F56;" d="M248,287.995h-24h-0.001H216c-4.418,0-8,3.582-8,8s3.582,8,8,8h16h-0.001H248c4.418,0,8-3.582,8-8
		S252.418,287.995,248,287.995z"/>
	<g>
		<g>
			<path style="fill:#734B46;" d="M224,296c0-4.418,3.582-8,8-8h-16c-4.418,0-8,3.582-8,8s3.582,8,8,8h16
				C227.582,304,224,300.418,224,296z"/>
		</g>
	</g>
</g>
<g>
</g>
<g>
</g>
<g>
</g>
<g>
</g>
<g>
</g>
<g>
</g>
<g>
</g>
<g>
</g>
<g>
</g>
<g>
</g>
<g>
</g>
<g>
</g>
<g>
</g>
<g>
</g>
<g>
</g>
</svg>
