<?xml version="1.0" encoding="iso-8859-1"?>
<!-- Generator: Adobe Illustrator 18.0.0, SVG Export Plug-In . SVG Version: 6.00 Build 0)  -->
<!DOCTYPE svg PUBLIC "-//W3C//DTD SVG 1.1//EN" "http://www.w3.org/Graphics/SVG/1.1/DTD/svg11.dtd">
<svg version="1.1" id="Capa_1" xmlns="http://www.w3.org/2000/svg" xmlns:xlink="http://www.w3.org/1999/xlink" x="0px" y="0px"
	 viewBox="0 0 56 56" style="enable-background:new 0 0 56 56;" xml:space="preserve">
<g>
	<circle style="fill:#9777A8;" cx="6" cy="49" r="6"/>
	<circle style="fill:#583E68;" cx="10" cy="28" r="6"/>
	<path style="fill:#583E68;" d="M16,41c-2.578,0-4.769,1.628-5.618,3.91C11.383,45.982,12,47.417,12,49
		c0,0.736-0.139,1.438-0.382,2.09C12.714,52.262,14.269,53,16,53c3.314,0,6-2.686,6-6S19.314,41,16,41z"/>
	<path style="fill:#6F58A8;" d="M10.382,44.91c0.594-1.596,1.853-2.858,3.434-3.481C13.928,40.97,14,40.494,14,40
		c0-3.314-2.686-6-6-6s-6,2.686-6,6c0,1.383,0.472,2.653,1.258,3.667C4.081,43.243,5.011,43,6,43c1.93,0,3.643,0.915,4.74,2.331
		C10.627,45.186,10.507,45.045,10.382,44.91z"/>
	<path style="fill:#6F58A8;" d="M26,38c-2.858,0-5.244,2-5.848,4.675C21.289,43.766,22,45.299,22,47
		c0,0.456-0.055,0.898-0.152,1.325C22.926,49.36,24.387,50,26,50c3.314,0,6-2.686,6-6S29.314,38,26,38z"/>
	<path style="fill:#9777A8;" d="M23.371,38.628C23.762,37.832,24,36.947,24,36c0-3.314-2.686-6-6-6
		c-0.932,0-1.811,0.217-2.597,0.597c-0.59,1.225-1.581,2.216-2.806,2.806c-0.317,0.66-0.518,1.387-0.575,2.155
		C13.234,36.655,14,38.236,14,40c0,0.148-0.018,0.291-0.03,0.436c0.281,0.255,0.588,0.48,0.913,0.679C15.246,41.046,15.617,41,16,41
		c1.15,0,2.22,0.329,3.133,0.89c0.533-0.102,1.03-0.293,1.503-0.526C21.221,40.174,22.181,39.212,23.371,38.628z"/>
	<path style="fill:#583E68;" d="M28,28c-0.774,0-1.506,0.162-2.184,0.429c-0.418,1.701-1.551,3.119-3.074,3.904
		c0-0.001-0.001-0.001-0.001-0.001C23.528,33.345,24,34.616,24,36c0,0.734-0.146,1.43-0.393,2.077
		c0.098,0.105,0.203,0.202,0.308,0.3C24.565,38.136,25.266,38,26,38c1.583,0,3.018,0.617,4.09,1.618C32.372,38.769,34,36.578,34,34
		C34,30.686,31.314,28,28,28z"/>
	<path style="fill:#9777A8;" d="M36,34c-0.713,0-1.394,0.13-2.028,0.359c-0.145,2.419-1.708,4.451-3.882,5.26
		c-0.013-0.013-0.028-0.023-0.042-0.036C31.244,40.68,32,42.249,32,44c0,0.149-0.012,0.296-0.022,0.443
		C33.042,45.407,34.45,46,36,46c3.314,0,6-2.686,6-6S39.314,34,36,34z"/>
	<path style="fill:#583E68;" d="M38,24c-0.378,0-0.747,0.039-1.106,0.106c-0.453,2.426-2.362,4.335-4.788,4.788
		c-0.041,0.217-0.066,0.439-0.084,0.663C33.234,30.655,34,32.236,34,34c0,0.145-0.023,0.284-0.034,0.427
		C33.991,34.397,35.293,34,36,34c1.583,0,3.018,0.617,4.09,1.618C42.372,34.769,44,32.578,44,30C44,26.686,41.314,24,38,24z"/>
	<path style="fill:#9777A8;" d="M25,11c-2.462,0-4.575,1.484-5.5,3.605C19.82,15.339,20,16.148,20,17s-0.18,1.661-0.5,2.395
		c0.264,0.606,0.635,1.152,1.074,1.634c1.522,0.145,2.874,0.861,3.85,1.928C24.615,22.975,24.804,23,25,23c0-3.314,2.686-6,6-6
		C31,13.686,28.314,11,25,11z"/>
	<path style="fill:#6F58A8;" d="M14,11c-3.314,0-6,2.686-6,6c0,2.127,1.11,3.991,2.779,5.056c0.891,0.116,1.719,0.426,2.443,0.888
		C13.477,22.977,13.736,23,14,23c3.314,0,6-2.686,6-6S17.314,11,14,11z"/>
	<path style="fill:#6F58A8;" d="M25.056,23.78c-0.003-0.004-0.005-0.009-0.007-0.013v0C23.982,22.104,22.122,21,20,21
		c-0.63,0-1.234,0.105-1.804,0.285c-0.661,0.648-1.471,1.144-2.375,1.432c-0.456,0.446-0.85,0.955-1.147,1.526
		C15.502,25.272,16,26.577,16,28c0,0.947-0.229,1.838-0.62,2.635c0.007-0.013,0.016-0.025,0.022-0.038
		C16.189,30.217,17.068,30,18,30c1.931,0,3.644,0.916,4.742,2.333C24.675,31.337,26,29.325,26,27c0-0.266-0.024-0.525-0.058-0.781
		C25.481,25.496,25.172,24.669,25.056,23.78z"/>
	<path style="fill:#6F58A8;" d="M31,17c-3.314,0-6,2.686-6,6c0,2.098,1.079,3.942,2.711,5.015C27.807,28.01,27.902,28,28,28
		c1.216,0,2.345,0.364,3.29,0.985C34.468,28.833,37,26.216,37,23C37,19.686,34.314,17,31,17z"/>
	<path style="fill:#88C057;" d="M56,26c-6.633,0-12-5.367-12-12C50.633,14,56,19.367,56,26z"/>
	<path style="fill:#7A3726;" d="M34,19v-2c7.168,0,13-7.178,13-16h2C49,10.925,42.271,19,34,19z"/>
</g>
<g>
</g>
<g>
</g>
<g>
</g>
<g>
</g>
<g>
</g>
<g>
</g>
<g>
</g>
<g>
</g>
<g>
</g>
<g>
</g>
<g>
</g>
<g>
</g>
<g>
</g>
<g>
</g>
<g>
</g>
</svg>
