<?xml version="1.0" encoding="iso-8859-1"?>
<!-- Generator: Adobe Illustrator 19.0.0, SVG Export Plug-In . SVG Version: 6.00 Build 0)  -->
<svg version="1.1" id="Layer_1" xmlns="http://www.w3.org/2000/svg" xmlns:xlink="http://www.w3.org/1999/xlink" x="0px" y="0px"
	 viewBox="0 0 512 512" style="enable-background:new 0 0 512 512;" xml:space="preserve">
<polygon style="fill:#FFE777;" points="256,15.99 56.264,175.768 56.264,241.506 421.978,512 455.736,512 455.736,175.768 "/>
<polygon style="fill:#FFF1B1;" points="421.978,214.5 421.978,512 329.143,512 256,462.218 182.857,512 56.264,512 56.264,241.506 
	256,81.729 "/>
<polygon style="fill:#FE5F1A;" points="329.143,288.07 329.143,512 295.385,512 239.121,400.035 295.385,288.07 "/>
<rect x="182.857" y="288.07" style="fill:#FE834D;" width="112.527" height="223.93"/>
<path style="fill:#FE5F1A;" d="M505.651,194.997L266.53,3.7C263.642,1.39,259.986,0,256,0l-11.253,21.943L256,38.495
	l228.591,182.861c2.887,2.31,6.545,3.7,10.53,3.7c9.322,0,16.879-7.557,16.879-16.879C512,202.84,509.517,198.089,505.651,194.997z"
	/>
<path style="fill:#FE834D;" d="M245.47,3.7L6.349,194.997C2.483,198.089,0,202.84,0,208.176c0,9.322,7.557,16.879,16.879,16.879
	c3.986,0,7.642-1.39,10.53-3.7L256,38.496V0C252.014,0,248.358,1.39,245.47,3.7z"/>
<path style="fill:#02ACAB;" d="M256,122.767v112.527c31.069,0,56.264-25.184,56.264-56.264
	C312.264,147.962,287.069,122.767,256,122.767z"/>
<path style="fill:#42C8C6;" d="M256,122.767c12.434,0,22.505,25.195,22.505,56.264c0,31.08-10.071,56.264-22.505,56.264
	c-31.069,0-56.264-25.184-56.264-56.264C199.736,147.962,224.931,122.767,256,122.767z"/>
<circle style="fill:#FFF1B1;" cx="256" cy="344.334" r="8.44"/>
<path style="fill:#FE5F1A;" d="M340.396,296.51H171.604c-4.662,0-8.44-3.779-8.44-8.44s3.778-8.44,8.44-8.44h168.791
	c4.662,0,8.44,3.779,8.44,8.44S345.058,296.51,340.396,296.51z"/>
<path style="fill:#FFE777;" d="M295.385,419.727c-4.662,0-8.44-3.779-8.44-8.44v-22.505c0-4.661,3.778-8.44,8.44-8.44
	c4.662,0,8.44,3.779,8.44,8.44v22.505C303.824,415.949,300.047,419.727,295.385,419.727z"/>
<g>
</g>
<g>
</g>
<g>
</g>
<g>
</g>
<g>
</g>
<g>
</g>
<g>
</g>
<g>
</g>
<g>
</g>
<g>
</g>
<g>
</g>
<g>
</g>
<g>
</g>
<g>
</g>
<g>
</g>
</svg>
