<?xml version="1.0" encoding="iso-8859-1"?>
<!-- Generator: Adobe Illustrator 18.0.0, SVG Export Plug-In . SVG Version: 6.00 Build 0)  -->
<!DOCTYPE svg PUBLIC "-//W3C//DTD SVG 1.1//EN" "http://www.w3.org/Graphics/SVG/1.1/DTD/svg11.dtd">
<svg version="1.1" id="Capa_1" xmlns="http://www.w3.org/2000/svg" xmlns:xlink="http://www.w3.org/1999/xlink" x="0px" y="0px"
	 viewBox="0 0 58 58" style="enable-background:new 0 0 58 58;" xml:space="preserve">
<g>
	<path style="fill:#ED7161;" d="M39.869,58H18.131C16.954,58,16,57.046,16,55.869V12.621C16,11.726,16.726,11,17.621,11h22.757
		C41.274,11,42,11.726,42,12.621v43.248C42,57.046,41.046,58,39.869,58z"/>
	<polygon style="fill:#D13834;" points="35,11 23,11 27.615,0 30.385,0 	"/>
	<rect x="16" y="16" style="fill:#D75A4A;" width="26" height="2"/>
	<rect x="20" y="11" style="fill:#D75A4A;" width="2" height="6"/>
	<rect x="25" y="11" style="fill:#D75A4A;" width="2" height="6"/>
	<rect x="30" y="11" style="fill:#D75A4A;" width="2" height="6"/>
	<rect x="36" y="11" style="fill:#D75A4A;" width="2" height="6"/>
	<circle style="fill:#D13834;" cx="29" cy="36" r="10"/>
</g>
<g>
</g>
<g>
</g>
<g>
</g>
<g>
</g>
<g>
</g>
<g>
</g>
<g>
</g>
<g>
</g>
<g>
</g>
<g>
</g>
<g>
</g>
<g>
</g>
<g>
</g>
<g>
</g>
<g>
</g>
</svg>
