<?xml version="1.0" encoding="iso-8859-1"?>
<!-- Generator: Adobe Illustrator 18.0.0, SVG Export Plug-In . SVG Version: 6.00 Build 0)  -->
<!DOCTYPE svg PUBLIC "-//W3C//DTD SVG 1.1//EN" "http://www.w3.org/Graphics/SVG/1.1/DTD/svg11.dtd">
<svg version="1.1" id="Capa_1" xmlns="http://www.w3.org/2000/svg" xmlns:xlink="http://www.w3.org/1999/xlink" x="0px" y="0px"
	 viewBox="0 0 58.481 58.481" style="enable-background:new 0 0 58.481 58.481;" xml:space="preserve">
<g>
	<path style="fill:#516572;" d="M25.6,13.435l-0.911,1.822c-1.27,2.54-2.941,4.858-4.949,6.866L5.565,36.299l-5.194,2.365
		c-0.247,2.064,2.14,4.618,4.114,4.614c0.233,0,0.443,0.205,0.442,0.438c-0.007,1.823,1.283,3.112,3.106,3.105
		c0.257-0.001,0.438,0.18,0.437,0.437c-0.007,1.823,1.283,3.113,3.106,3.106c0.257-0.001,0.438,0.18,0.437,0.437
		c-0.007,1.823,1.282,3.112,3.105,3.106c0.233-0.001,0.438,0.209,0.438,0.442c-0.003,1.974,2.55,4.361,4.614,4.114l2.336-5.164
		l14.205-14.205c2.008-2.008,4.326-3.679,6.866-4.949l1.822-0.911L25.6,13.435z"/>
	
		<rect x="33.391" y="-0.653" transform="matrix(0.6963 0.7178 -0.7178 0.6963 15.9381 -22.3606)" style="fill:#EEAF4B;" width="2" height="16.612"/>
	
		<rect x="49.876" y="16.684" transform="matrix(0.7254 0.6883 -0.6883 0.7254 30.9285 -28.2538)" style="fill:#EEAF4B;" width="2" height="15.908"/>
	
		<rect x="36.975" y="-2.368" transform="matrix(0.7071 0.7071 -0.7071 0.7071 16.8726 -24.4704)" style="fill:#F9EA80;" width="2" height="21.001"/>
	
		<rect x="40.156" y="-2.808" transform="matrix(0.7071 0.7071 -0.7071 0.7071 18.5544 -26.4095)" style="fill:#EEAF4B;" width="2" height="24"/>
	
		<rect x="42.631" y="-1.54" transform="matrix(0.7071 0.7071 -0.7071 0.7071 20.5291 -27.6416)" style="fill:#F9EA80;" width="2" height="25"/>
	
		<rect x="44.753" y="0.582" transform="matrix(0.7071 0.7071 -0.7071 0.7071 22.6508 -28.5208)" style="fill:#EEAF4B;" width="2" height="24.999"/>
	
		<rect x="46.521" y="3.557" transform="matrix(0.7071 0.7071 -0.7071 0.7071 24.9187 -29.0457)" style="fill:#F9EA80;" width="2" height="24"/>
	
		<rect x="48.288" y="6.531" transform="matrix(0.7071 0.7071 -0.7071 0.7071 27.1862 -29.5708)" style="fill:#EEAF4B;" width="2" height="23"/>
	
		<rect x="49.316" y="11.004" transform="matrix(0.7158 0.6983 -0.6983 0.7158 29.015 -29.1442)" style="fill:#F9EA80;" width="2" height="20.147"/>
	<path style="fill:#F1B501;" d="M25.566,33.37l-1.945,0.537c-2.281,0.34-4.072,2.131-4.412,4.412l-0.537,1.945l1.945-0.537
		c2.281-0.34,4.072-2.131,4.412-4.412L25.566,33.37z"/>
	<path style="fill:#F1B501;" d="M17.378,29.879l-0.995,1.755c-1.373,1.853-1.373,4.386,0,6.239l0.995,1.755l0.995-1.755
		c1.373-1.853,1.373-4.386,0-6.239L17.378,29.879z"/>
	<path style="fill:#F1B501;" d="M29.06,41.895L27.305,40.9c-1.853-1.373-4.386-1.373-6.239,0l-1.755,0.995l1.755,0.995
		c1.853,1.373,4.386,1.373,6.239,0L29.06,41.895z"/>
	<path style="fill:#F1B501;" d="M20.65,30.698c-0.256,0-0.512-0.098-0.707-0.293c-0.391-0.391-0.391-1.023,0-1.414l3.509-3.509
		c0.391-0.391,1.023-0.391,1.414,0s0.391,1.023,0,1.414l-3.509,3.509C21.162,30.601,20.906,30.698,20.65,30.698z"/>
	<path style="fill:#F1B501;" d="M23.996,31.596c-0.256,0-0.512-0.098-0.707-0.293c-0.391-0.391-0.391-1.023,0-1.414l4.386-4.386
		c0.391-0.391,1.023-0.391,1.414,0s0.391,1.023,0,1.414l-4.386,4.386C24.508,31.498,24.252,31.596,23.996,31.596z"/>
	<path style="fill:#F1B501;" d="M28.58,35.496c-0.256,0-0.512-0.098-0.707-0.293c-0.391-0.391-0.391-1.023,0-1.414l4.387-4.386
		c0.391-0.391,1.023-0.391,1.414,0s0.391,1.023,0,1.414l-4.387,4.386C29.092,35.398,28.836,35.496,28.58,35.496z"/>
	<path style="fill:#F1B501;" d="M28.644,31.173c-0.256,0-0.512-0.098-0.707-0.293c-0.391-0.391-0.391-1.023,0-1.414l3.948-3.947
		c0.391-0.391,1.023-0.391,1.414,0s0.391,1.023,0,1.414l-3.948,3.947C29.155,31.075,28.9,31.173,28.644,31.173z"/>
	<path style="fill:#F1B501;" d="M29.136,39.184c-0.256,0-0.512-0.098-0.707-0.293c-0.391-0.391-0.391-1.023,0-1.414l3.509-3.509
		c0.391-0.391,1.023-0.391,1.414,0s0.391,1.023,0,1.414l-3.509,3.509C29.648,39.086,29.392,39.184,29.136,39.184z"/>
	
		<rect x="5.625" y="37.067" transform="matrix(0.7071 0.7071 -0.7071 0.7071 28.858 6.4654)" style="fill:#F4C44E;" width="2" height="2"/>
	
		<rect x="7.746" y="39.189" transform="matrix(0.7071 0.7071 -0.7071 0.7071 30.9792 5.5864)" style="fill:#F4C44E;" width="2" height="2"/>
	
		<rect x="9.867" y="41.311" transform="matrix(0.7071 0.7071 -0.7071 0.7071 33.101 4.7081)" style="fill:#F4C44E;" width="2" height="2"/>
	
		<rect x="11.988" y="43.432" transform="matrix(0.7071 0.7071 -0.7071 0.7071 35.2221 3.8296)" style="fill:#F4C44E;" width="2" height="2"/>
	
		<rect x="14.11" y="45.553" transform="matrix(0.7071 0.7071 -0.7071 0.7071 37.3432 2.951)" style="fill:#F4C44E;" width="2" height="2"/>
	
		<rect x="16.232" y="47.674" transform="matrix(0.7071 0.7071 -0.7071 0.7071 39.4646 2.0717)" style="fill:#F4C44E;" width="2" height="2"/>
	
		<rect x="18.353" y="49.795" transform="matrix(0.7071 0.7071 -0.7071 0.7071 41.586 1.1933)" style="fill:#F4C44E;" width="2" height="2"/>
	
		<rect x="20.474" y="51.917" transform="matrix(0.7071 0.7071 -0.7071 0.7071 43.7075 0.3148)" style="fill:#F4C44E;" width="2" height="2"/>
</g>
<g>
</g>
<g>
</g>
<g>
</g>
<g>
</g>
<g>
</g>
<g>
</g>
<g>
</g>
<g>
</g>
<g>
</g>
<g>
</g>
<g>
</g>
<g>
</g>
<g>
</g>
<g>
</g>
<g>
</g>
</svg>
