<?xml version="1.0" encoding="iso-8859-1"?>
<!-- Generator: Adobe Illustrator 19.0.0, SVG Export Plug-In . SVG Version: 6.00 Build 0)  -->
<svg version="1.1" id="Layer_1" xmlns="http://www.w3.org/2000/svg" xmlns:xlink="http://www.w3.org/1999/xlink" x="0px" y="0px"
	 viewBox="0 0 512.001 512.001" style="enable-background:new 0 0 512.001 512.001;" xml:space="preserve">
<path style="fill:#6598CB;" d="M208.142,308.1c9.263,0,18.156,4.437,23.786,11.868l4.118,5.437h26.817v-68.492h-65.565v-18.456
	c10.747-7.595,17.304-20.092,17.304-33.336c0-22.485-18.292-40.777-40.777-40.777c-22.484,0-40.776,18.292-40.776,40.777
	c0,13.241,6.556,25.735,17.306,33.335v18.457H84.791v57.513H74.387c-7.592-10.747-20.088-17.304-33.335-17.304
	c-22.484,0-40.777,18.292-40.777,40.777s18.292,40.777,40.777,40.777c13.241,0,25.735-6.556,33.335-17.306h10.405v48.452
	c2.43,13.571,12.21,17.003,18.889,17.72h6.213c0.146-0.02,0.237-0.032,0.237-0.032l0.013,0.032h152.719V350.39h-26.815l-4.116,5.435
	c-5.634,7.434-14.526,11.872-23.789,11.872c-16.43,0-29.798-13.368-29.798-29.799C178.345,321.468,191.712,308.1,208.142,308.1z"/>
<g>
	<path style="fill:#4982AA;" d="M146.225,205.122c0-20.242,14.827-37.078,34.188-40.237c-2.145-0.349-4.345-0.539-6.588-0.539
		c-22.484,0-40.776,18.292-40.776,40.777c0,13.241,6.556,25.735,17.306,33.335v18.457h13.176v-18.457
		C152.781,230.858,146.225,218.363,146.225,205.122z"/>
	<path style="fill:#4982AA;" d="M47.58,297.673c-2.144-0.351-4.325-0.55-6.53-0.55c-22.484,0-40.777,18.292-40.777,40.777
		s18.292,40.777,40.777,40.777c2.205,0,4.384-0.199,6.528-0.55c-19.333-3.184-34.13-20.006-34.13-40.227
		C13.45,317.679,28.247,300.857,47.58,297.673z"/>
	<polygon style="fill:#4982AA;" points="84.242,307.815 84.242,311.385 84.242,314.427 87.013,314.427 91.675,314.427 
		97.417,314.427 97.417,256.913 84.242,256.913 	"/>
	<path style="fill:#4982AA;" d="M97.417,426.081v-64.71H90.83h-3.819h-2.769v3.477v7.619v31.347
		C84.473,417.716,90.978,423.642,97.417,426.081z"/>
</g>
<path style="fill:#F7971D;" d="M473.696,132.774c-12.824,0-24.897,6.591-31.885,17.305h-14.602v-41.123
	c0-19.017-11.493-23.538-19.17-24.442h-153.41v71.053h22.704l3.295-4.348c6.15-8.114,15.86-12.957,25.978-12.957
	c17.943,0,32.54,14.598,32.54,32.542s-14.597,32.542-32.54,32.542c-10.12,0-19.831-4.843-25.979-12.956l-3.295-4.348h-22.702v70.87
	h65.563v14.787c-10.713,6.985-17.304,19.058-17.304,31.886c0,20.97,17.061,38.029,38.032,38.029c20.97,0,38.03-17.059,38.03-38.029
	c0-12.827-6.591-24.901-17.304-31.885v-14.788h65.563v-65.38h14.602c6.984,10.713,19.057,17.304,31.885,17.304
	c20.971,0,38.031-17.061,38.031-38.032C511.727,149.835,494.667,132.774,473.696,132.774z"/>
<path style="fill:#F37521;" d="M350.124,170.805c0-18.373-14.947-33.322-33.321-33.322c-2.257,0-4.491,0.249-6.676,0.703
	c15.116,3.156,26.505,16.581,26.505,32.619s-11.389,29.465-26.506,32.619c2.184,0.453,4.419,0.704,6.677,0.704
	C335.177,204.128,350.124,189.179,350.124,170.805z"/>
<path style="fill:#FCD638;" d="M363.844,442.685v-15.142h44.341c7.577-0.927,18.736-5.416,19.024-23.719v-146.91h-68.857v22.694
	l4.349,3.269c8.112,6.094,12.955,15.723,12.955,25.757c0,17.788-14.597,32.261-32.54,32.261c-17.944,0-32.542-14.473-32.542-32.261
	c0-10.033,4.843-19.662,12.956-25.758l4.348-3.268v-22.694h-71.053V322.1h-14.603c-6.987-10.622-19.059-17.157-31.883-17.157
	c-20.971,0-38.032,16.915-38.032,37.708c0,20.793,17.061,37.708,38.032,37.708c12.825,0,24.898-6.538,31.881-17.159h14.605v64.341
	h65.564v15.142c-10.712,6.924-17.302,18.893-17.302,31.61c0,20.791,17.06,37.706,38.03,37.706c20.971,0,38.032-16.914,38.032-37.706
	C381.147,461.582,374.556,449.612,363.844,442.685z"/>
<g>
	<path style="fill:#F9B338;" d="M185.481,342.291c0-18.71,13.584-34.297,31.406-37.444c-2.147-0.381-4.335-0.59-6.549-0.59
		c-20.971,0-38.032,17.061-38.032,38.033s17.061,38.033,38.032,38.033c2.215,0,4.403-0.209,6.549-0.59
		C199.065,376.587,185.481,361.001,185.481,342.291z"/>
	<rect x="256.428" y="256.911" style="fill:#F9B338;" width="11.283" height="65.142"/>
	<rect x="256.428" y="363.227" style="fill:#F9B338;" width="11.283" height="64.318"/>
	<path style="fill:#F9B338;" d="M318.262,473.97c0-12.827,6.59-24.9,17.302-31.883v-14.545h-13.176v14.545
		c-10.712,6.983-17.302,19.055-17.302,31.883c0,20.971,17.06,38.031,38.03,38.031c2.247,0,4.447-0.208,6.588-0.583
		C331.865,508.288,318.262,492.692,318.262,473.97z"/>
</g>
<path id="SVGCleanerId_0" style="fill:#EF4C35;" d="M303.311,132.774c-12.823,0-24.896,6.592-31.884,17.305h-14.603V84.515h-65.563
	V69.914c10.712-6.985,17.303-19.057,17.303-31.883C208.564,17.06,191.504,0,170.533,0s-38.032,17.06-38.032,38.031
	c0,12.823,6.591,24.895,17.304,31.883v14.602H103.22c-7.139,0.842-17.55,4.837-18.978,20.676v151.722h71.054v-22.519l-4.348-3.295
	c-8.114-6.15-12.958-15.86-12.958-25.978c0-17.944,14.597-32.542,32.541-32.542s32.542,14.598,32.542,32.542
	c0,10.118-4.843,19.829-12.956,25.977l-4.348,3.295v22.52h71.054v-65.38h14.603c6.984,10.713,19.057,17.304,31.884,17.304
	c20.97,0,38.03-17.061,38.03-38.032C341.34,149.835,324.28,132.774,303.311,132.774z"/>
<g>
	<path id="SVGCleanerId_0_1_" style="fill:#EF4C35;" d="M303.311,132.774c-12.823,0-24.896,6.592-31.884,17.305h-14.603V84.515
		h-65.563V69.914c10.712-6.985,17.303-19.057,17.303-31.883C208.564,17.06,191.504,0,170.533,0s-38.032,17.06-38.032,38.031
		c0,12.823,6.591,24.895,17.304,31.883v14.602H103.22c-7.139,0.842-17.55,4.837-18.978,20.676v151.722h71.054v-22.519l-4.348-3.295
		c-8.114-6.15-12.958-15.86-12.958-25.978c0-17.944,14.597-32.542,32.541-32.542s32.542,14.598,32.542,32.542
		c0,10.118-4.843,19.829-12.956,25.977l-4.348,3.295v22.52h71.054v-65.38h14.603c6.984,10.713,19.057,17.304,31.884,17.304
		c20.97,0,38.03-17.061,38.03-38.032C341.34,149.835,324.28,132.774,303.311,132.774z"/>
</g>
<g>
	<path style="fill:#DF3126;" d="M149.804,69.914v14.602h13.175V69.914c-10.713-6.987-17.304-19.059-17.304-31.883
		c0-18.723,13.605-34.318,31.444-37.447c-2.141-0.377-4.34-0.583-6.588-0.583c-20.971,0-38.032,17.06-38.032,38.031
		C132.501,50.853,139.092,62.926,149.804,69.914z"/>
	<path style="fill:#DF3126;" d="M84.242,105.191v151.722h13.176V85.886C91.413,88.108,85.311,93.33,84.242,105.191z"/>
</g>
<g>
	<rect x="256.055" y="84.515" style="fill:#F37521;" width="11.744" height="65.563"/>
	<rect x="256.055" y="191.528" style="fill:#F37521;" width="11.744" height="65.383"/>
</g>
<g>
</g>
<g>
</g>
<g>
</g>
<g>
</g>
<g>
</g>
<g>
</g>
<g>
</g>
<g>
</g>
<g>
</g>
<g>
</g>
<g>
</g>
<g>
</g>
<g>
</g>
<g>
</g>
<g>
</g>
</svg>
