<?xml version="1.0" encoding="iso-8859-1"?>
<!-- Generator: Adobe Illustrator 21.0.0, SVG Export Plug-In . SVG Version: 6.00 Build 0)  -->
<svg xmlns="http://www.w3.org/2000/svg" xmlns:xlink="http://www.w3.org/1999/xlink" version="1.1" id="Capa_1" x="0px" y="0px" viewBox="0 0 511.38 511.38" style="enable-background:new 0 0 511.38 511.38;" xml:space="preserve" width="512" height="512">
<g>
	<path style="fill:#FFA035;" d="M442.37,95.76h-58.02c-4.143,0-7.5,3.358-7.5,7.5v370.62c0,12.407-10.094,22.5-22.5,22.5   c-4.143,0-7.5,3.358-7.5,7.5c0,4.142,3.357,7.5,7.5,7.5h58.02c20.678,0,37.5-16.822,37.5-37.5V103.26   C449.87,99.118,446.512,95.76,442.37,95.76z"/>
	<path style="fill:#F78819;" d="M442.37,95.76h-33.233c4.143,0,7.5,3.358,7.5,7.5v370.62c0,20.678-16.822,37.5-37.5,37.5h33.233   c20.678,0,37.5-16.822,37.5-37.5V103.26C449.87,99.118,446.512,95.76,442.37,95.76z"/>
	<path style="fill:#604B35;" d="M365.43,110.76c-4.143,0-7.5-3.358-7.5-7.5V76.88c0-16.539-6.436-32.078-18.121-43.754   C328.12,21.436,312.583,15,296.06,15c-10.873,0-21.571,2.861-30.938,8.273C246.037,34.308,234.18,54.849,234.18,76.88v26.38   c0,4.142-3.357,7.5-7.5,7.5c-4.143,0-7.5-3.358-7.5-7.5V76.88c0-27.37,14.728-52.887,38.436-66.593   C269.262,3.557,282.555,0,296.06,0c20.53,0,39.833,7.997,54.354,22.517c14.52,14.508,22.517,33.815,22.517,54.363v26.38   C372.93,107.402,369.573,110.76,365.43,110.76z"/>
	<path style="fill:#FFDF65;" d="M384.35,95.76H69.01c-4.143,0-7.5,3.358-7.5,7.5v370.62c0,20.678,16.822,37.5,37.5,37.5h255.34   c20.678,0,37.5-16.822,37.5-37.5V103.26C391.85,99.118,388.493,95.76,384.35,95.76z"/>
	<path style="fill:#FFCD2C;" d="M384.35,95.76h-36c4.143,0,7.5,3.358,7.5,7.5v370.62c0,20.678-16.822,37.5-37.5,37.5h36   c20.678,0,37.5-16.822,37.5-37.5V103.26C391.85,99.118,388.493,95.76,384.35,95.76z"/>
	<path style="fill:#6E563D;" d="M303.56,142.098V76.88c0-20.536-7.997-39.842-22.517-54.363c-4.75-4.75-10.105-8.865-15.921-12.23   C253.477,3.557,240.184,0,226.68,0c-42.387,0-76.87,34.488-76.87,76.88v65.218c-4.107,2.53-6.86,7.055-6.86,12.222   c0,7.924,6.442,14.37,14.36,14.37c7.924,0,14.37-6.446,14.37-14.37c0-5.17-2.757-9.696-6.87-12.225V76.88   c0-34.121,27.755-61.88,61.87-61.88c10.872,0,21.57,2.861,30.933,8.271c4.682,2.709,8.996,6.024,12.823,9.852   C282.124,44.811,288.56,60.35,288.56,76.88v65.215c-4.113,2.529-6.87,7.056-6.87,12.225c0,7.924,6.446,14.37,14.37,14.37   c7.918,0,14.36-6.446,14.36-14.37C310.42,149.152,307.667,144.627,303.56,142.098z"/>
</g>















</svg>
