<svg height="512pt" viewBox="0 -31 512 512" width="512pt" xmlns="http://www.w3.org/2000/svg"><path d="m84.683594 47.0625c-3.9375-1.964844-8.714844-.367188-10.675782 3.566406l-8.011718 16.046875-7.050782-29.09375c-1.035156-4.273437-5.335937-6.902343-9.609374-5.859375-4.273438 1.035156-6.894532 5.335938-5.859376 9.609375l7.050782 29.09375-14.464844-10.597656c-3.546875-2.597656-8.527344-1.828125-11.125 1.71875s-1.828125 8.523437 1.71875 11.125l32.035156 23.464844c.058594.042969.121094.070312.179688.109375.21875.152344.445312.28125.675781.410156.152344.085938.300781.175781.453125.246094.222656.105468.457031.191406.6875.273437.171875.0625.339844.132813.511719.183594.226562.066406.457031.105469.691406.148437.183594.035157.367187.085938.550781.105469.019532.003907.039063.007813.058594.011719.367188.042969.734375.050781 1.097656.042969.023438-.003907.046875.003906.066406.003906h.007813c.011719 0 .023437-.003906.03125-.003906.320313-.015625.636719-.046875.949219-.097657.109375-.019531.214844-.042968.324218-.066406.214844-.042968.429688-.09375.644532-.15625.113281-.03125.222656-.070312.332031-.105468.210937-.074219.421875-.152344.625-.242188.097656-.042969.195313-.085938.289063-.128906.226562-.109375.445312-.234375.660156-.363282.066406-.039062.136718-.078124.199218-.117187.554688-.363281 1.074219-.792969 1.535157-1.296875.066406-.074219.128906-.160156.195312-.238281.121094-.140625.246094-.28125.359375-.433594.03125-.039063.050782-.082031.082032-.125.054687-.078125.105468-.15625.15625-.238281.140624-.214844.265624-.433594.382812-.65625.027344-.042969.054688-.082032.078125-.128906l17.734375-35.53125c1.960938-3.9375.363281-8.71875-3.566406-10.679688zm0 0" fill="#80cf00"/><path d="m470 66.324219h-87.78125c-3.308594 0-5.992188-2.679688-5.992188-5.988281v-54.34375c0-3.308594 2.683594-5.992188 5.992188-5.992188h87.78125c3.308594 0 5.992188 2.683594 5.992188 5.992188v54.34375c0 3.308593-2.683594 5.988281-5.992188 5.988281zm0 0" fill="#f5d573"/><path d="m470 66.324219h-26.519531v-66.324219h26.519531c3.308594 0 5.992188 2.683594 5.992188 5.992188v54.34375c0 3.308593-2.683594 5.988281-5.992188 5.988281zm0 0" fill="#f3cc50"/><path d="m462.894531 107.296875v-40.972656h-74.632812v40.96875c0 7.1875-2.59375 14.128906-7.308594 19.550781l-24.503906 28.1875c-4.714844 5.421875-7.308594 12.363281-7.308594 19.550781v38.800781h152.875v-38.800781c0-7.1875-2.59375-14.128906-7.308594-19.550781l-24.503906-28.1875c-4.710937-5.421875-7.308594-12.363281-7.308594-19.546875zm0 0" fill="#f72c2c"/><path d="m502.015625 174.585938v38.800781h-26.027344v-38.800781c0-7.1875-2.589843-14.128907-7.3125-19.554688l-24.5-28.183594c-4.714843-5.421875-7.3125-12.363281-7.3125-19.550781v-40.96875h26.027344v40.96875c0 7.1875 2.597656 14.128906 7.3125 19.550781l24.5 28.183594c4.722656 5.425781 7.3125 12.363281 7.3125 19.554688zm0 0" fill="#e32929"/><path d="m327.90625 126.621094h-159.816406l-17.128906 25.917968c-2.679688 4.054688-4.105469 8.800782-4.105469 13.65625v46.949219h202.285156v-46.949219c0-4.855468-1.425781-9.605468-4.105469-13.65625zm0 0" fill="#8e2d2a"/><path d="m349.140625 166.199219v46.949219h-26.8125v-46.949219c0-4.855469-1.425781-9.605469-4.105469-13.65625l-17.125-25.921875h26.808594l17.128906 25.921875c2.675782 4.050781 4.105469 8.800781 4.105469 13.65625zm0 0" fill="#771f1f"/><path d="m335.4375 126.621094h-174.878906c-3.394532 0-6.144532-2.753906-6.144532-6.144532v-28.769531c0-3.394531 2.75-6.144531 6.144532-6.144531h174.878906c3.394531 0 6.144531 2.75 6.144531 6.144531v28.769531c0 3.390626-2.75 6.144532-6.144531 6.144532zm0 0" fill="#efe2dd"/><path d="m335.4375 126.621094h-22.367188v-41.058594h22.367188c3.394531 0 6.144531 2.75 6.144531 6.144531v28.769531c0 3.390626-2.75 6.144532-6.144531 6.144532zm0 0" fill="#e1d3ce"/><path d="m313.070312 213.144531h-130.144531v-41.570312c0-2.847657 2.308594-5.15625 5.15625-5.15625h119.832031c2.847657 0 5.15625 2.308593 5.15625 5.15625zm0 0" fill="#c9f0ff"/><path d="m313.070312 213.144531h-25.730468v-46.730469h20.574218c2.847657 0 5.15625 2.308594 5.15625 5.15625zm0 0" fill="#9ae7fd"/><path d="m137.226562 122.222656c-5.863281-21.207031-24.03125-36.851562-45.90625-39.242187-13.496093-1.476563-24.519531.792969-24.519531.792969s-11.023437 2.265624-22.839843 8.953124c-19.148438 10.839844-29.664063 32.386719-26.671876 54.183594 2.390626 17.402344 8.765626 48.132813 25.707032 82.648438l51.628906-10.628906 51.628906-10.625c1.933594-38.402344-4.351562-69.152344-9.027344-86.082032zm0 0" fill="#f78e3c"/><path d="m146.257812 208.304688-24.078124 4.960937c1.339843-37.910156-4.890626-68.214844-9.582032-85.179687-6.09375-22.078126-25.007812-38.351563-47.765625-40.847657-2.753906-.296875-5.402343-.453125-7.890625-.492187 5.816406-2.136719 9.859375-2.972656 9.859375-2.972656s11.023438-2.265626 24.523438-.792969c21.871093 2.390625 40.039062 18.035156 45.898437 39.238281 4.683594 16.933594 10.964844 47.683594 9.035156 86.085938zm0 0" fill="#e8782d"/><path d="m256 247.523438h-225.835938l28.597657 164.691406c3.734375 21.519531 22.414062 37.234375 44.257812 37.234375h305.960938c21.84375 0 40.523437-15.710938 44.257812-37.234375l28.597657-164.691406zm0 0" fill="#ffc143"/><path d="m481.835938 247.523438-28.597657 164.695312c-3.730469 21.519531-22.417969 37.226562-44.257812 37.226562h-31.554688c21.839844 0 40.523438-15.703124 44.257813-37.226562l28.597656-164.695312zm0 0" fill="#ffb509"/><path d="m506.84375 247.523438h-501.6875c-2.847656 0-5.15625-2.308594-5.15625-5.15625v-40.011719c0-2.847657 2.308594-5.15625 5.15625-5.15625h501.6875c2.847656 0 5.15625 2.308593 5.15625 5.15625v40.011719c0 2.847656-2.308594 5.15625-5.15625 5.15625zm0 0" fill="#f9efef"/><path d="m506.84375 247.523438h-25.007812v-50.324219h25.007812c2.847656 0 5.15625 2.308593 5.15625 5.15625v40.011719c0 2.847656-2.308594 5.15625-5.15625 5.15625zm0 0" fill="#efe2dd"/><path d="m45.351562 144.003906c.515626 0 1.042969-.050781 1.566407-.160156l22.074219-4.542969c4.183593-.863281 6.875-4.953125 6.015624-9.136719-.859374-4.183593-4.949218-6.875-9.136718-6.015624l-22.070313 4.546874c-4.183593.859376-6.878906 4.949219-6.015625 9.132813.753906 3.65625 3.972656 6.175781 7.566406 6.175781zm0 0" fill="#838383"/><path d="m95.960938 171.757812c.515624 0 1.042968-.050781 1.566406-.160156l22.074218-4.542968c4.183594-.863282 6.875-4.953126 6.015626-9.132813-.863282-4.1875-4.953126-6.882813-9.136719-6.019531l-22.074219 4.546875c-4.183594.859375-6.875 4.949219-6.015625 9.132812.753906 3.65625 3.976563 6.175781 7.570313 6.175781zm0 0" fill="#838383"/><g fill="#f9efef"><path d="m125.566406 408.375c.480469 0 .96875-.046875 1.457032-.140625 4.199218-.800781 6.949218-4.847656 6.148437-9.042969l-19.875-104.152344c-.800781-4.199218-4.855469-6.953124-9.046875-6.148437-4.195312.800781-6.945312 4.851563-6.144531 9.046875l19.871093 104.152344c.710938 3.707031 3.953126 6.285156 7.589844 6.285156zm0 0"/><path d="m211.273438 408.371094c.214843 0 .433593-.007813.652343-.023438 4.257813-.355468 7.417969-4.09375 7.0625-8.351562l-8.695312-104.152344c-.355469-4.257812-4.089844-7.429688-8.351563-7.0625-4.253906.355469-7.417968 4.09375-7.0625 8.351562l8.695313 104.148438c.335937 4.039062 3.71875 7.089844 7.699219 7.089844zm0 0"/><path d="m386.433594 408.375c3.636718 0 6.878906-2.582031 7.589844-6.285156l19.871093-104.152344c.800781-4.195312-1.949219-8.246094-6.144531-9.046875-4.195312-.804687-8.246094 1.953125-9.046875 6.148437l-19.875 104.152344c-.800781 4.195313 1.953125 8.246094 6.148437 9.042969.488282.09375.976563.140625 1.457032.140625zm0 0"/><path d="m300.726562 408.371094c3.980469 0 7.363282-3.050782 7.699219-7.089844l8.695313-104.152344c.355468-4.257812-2.808594-7.996094-7.0625-8.347656-4.257813-.371094-7.996094 2.808594-8.351563 7.0625l-8.695312 104.152344c-.355469 4.257812 2.804687 7.996094 7.0625 8.347656.21875.019531.4375.027344.652343.027344zm0 0"/></g></svg>